<svg xmlns:xlink="http://www.w3.org/1999/xlink" preserveAspectRatio="xMidYMid meet" data-bbox="0 0 450.324 129.369" xmlns="http://www.w3.org/2000/svg" viewBox="0 0 450.324 129.369" height="130" width="451" data-type="color" role="presentation" aria-hidden="true">
    <g>
        <path fill="#08254F" d="M88.494 89.525H47.31v-5.93c3.48 0 6.015-.246 7.605-.74 1.59-.495 2.385-1.666 2.385-3.513 0-1.29-.258-2.6-.774-3.932L52.4 65.098H24.041l-2.127 5.672c-1.203 3.18-1.805 5.478-1.805 6.896 0 2.578 1 4.21 2.997 4.898 1.999.688 4.33 1.032 6.994 1.032v5.93H0v-5.93c2.406 0 4.447-.451 6.123-1.354 1.676-.902 3.276-2.61 4.802-5.124 1.525-2.514 3.169-6.07 4.93-10.667l25.202-66h6.123l26.619 68.063c1.933 4.812 3.351 8.067 4.254 9.764.902 1.698 2.148 3.008 3.738 3.932 1.59.924 3.824 1.386 6.703 1.386v5.93zM50.08 58.781L38.027 28.295 26.555 58.78H50.08zm164.033 30.744h-35.771v-5.93c2.965 0 5.07-.332 6.316-.998 1.246-.666 2.009-1.59 2.288-2.772.28-1.181.42-3.061.42-5.64V54.657c0-2.836-.635-5.457-1.902-7.863-1.268-2.406-4.157-3.61-8.67-3.61-3.222 0-6.015.806-8.378 2.418-2.363 1.61-4.179 3.824-5.446 6.638-1.268 2.815-1.902 5.962-1.902 9.443v12.504c0 2.664.161 4.586.484 5.768.322 1.182 1.15 2.084 2.481 2.707 1.332.623 3.502.935 6.51.935v5.93H135.48v-5.93c2.88 0 4.953-.323 6.22-.967 1.268-.645 2.041-1.568 2.32-2.772.28-1.203.42-3.093.42-5.671V53.883c0-4.512-1.182-7.423-3.545-8.734-2.364-1.31-4.577-1.965-6.64-1.965-2.75 0-5.413.666-7.991 1.998-2.578 1.332-4.534 3.05-5.866 5.156-.945 1.547-1.557 3.072-1.836 4.576-.28 1.504-.42 3.395-.42 5.672v13.6c0 2.664.162 4.586.484 5.768.322 1.182 1.17 2.084 2.546 2.707 1.375.623 3.545.935 6.51.935v5.93H92.426v-5.93c2.922 0 5.016-.312 6.284-.935 1.268-.623 2.052-1.536 2.353-2.74.3-1.202.45-3.114.45-5.735V52.143c0-4.04-2.599-6.059-7.798-6.059h-3.287v-5.93l27.199-5.543c.344 2.278.516 5.543.516 9.797 3.05-3.05 6.284-5.446 9.7-7.186 3.416-1.74 7.358-2.61 11.827-2.61 4.168 0 8.164.816 11.988 2.449 3.824 1.632 6.703 4.64 8.637 9.023 3.91-4.64 7.67-7.713 11.28-9.217 3.609-1.504 7.325-2.256 11.15-2.256 6.789 0 12.03 1.612 15.726 4.834 3.696 3.223 5.543 8.164 5.543 14.825v19.916c0 2.406.118 4.221.355 5.446.236 1.224.923 2.191 2.062 2.9 1.139.71 2.954 1.064 5.446 1.064h2.256v5.93zm69.153-27.328c0 5.285-1.236 10.195-3.706 14.728-2.471 4.533-5.887 8.12-10.248 10.763-4.362 2.643-9.25 3.964-14.664 3.964-6.789 0-12.697-2.384-17.724-7.154v20.625c0 2.45.161 4.286.483 5.51.322 1.225 1.053 2.15 2.192 2.772 1.138.623 2.89.935 5.253.935h3.544v5.93H210.95v-5.93c2.922 0 5.028-.247 6.317-.741 1.289-.495 2.116-1.343 2.481-2.546.365-1.203.548-3.18.548-5.93V54.656c0-2.492-.183-4.297-.548-5.414-.365-1.117-1.182-1.923-2.45-2.417-1.267-.494-3.383-.741-6.348-.741v-5.93l25.072-5.543c.516 1.72.817 4.448.903 8.186 2.836-2.836 5.768-4.91 8.798-6.22 3.029-1.31 6.52-1.966 10.473-1.966 4.297 0 8.143.774 11.537 2.32 3.395 1.548 6.23 3.62 8.508 6.22 2.278 2.6 4.018 5.565 5.22 8.895 1.204 3.33 1.806 6.714 1.806 10.151zm-17.79-.644c0-13.192-4.619-19.787-13.857-19.787-3.008 0-5.768.87-8.282 2.61a25.725 25.725 0 0 0-6.413 6.349v25.459c1.676 2.535 3.856 4.554 6.542 6.058 2.685 1.504 5.446 2.256 8.282 2.256 9.152 0 13.729-7.648 13.729-22.945zm57.876 27.972H286.29v-5.93h2.772c2.492 0 4.307-.343 5.446-1.03 1.138-.688 1.837-1.655 2.095-2.9.257-1.247.386-3.073.386-5.48V19.272c0-3.093-.72-5.07-2.159-5.93-1.44-.859-4.286-1.288-8.54-1.288v-5.93L313.619.58v73.606c0 2.406.118 4.221.355 5.446.236 1.224.923 2.191 2.062 2.9 1.139.71 2.954 1.064 5.446 1.064h1.87v5.93zm40.67 0h-34.999v-5.93h1.87c2.492 0 4.307-.343 5.446-1.03 1.139-.688 1.837-1.655 2.095-2.9.257-1.247.386-3.073.386-5.48V55.044c0-2.664-.16-4.555-.483-5.672-.322-1.117-1.16-1.933-2.514-2.45-1.353-.515-3.62-.794-6.8-.837v-5.93l26.426-5.543v39.575c0 3.609.451 6.08 1.354 7.412.902 1.332 3.308 1.998 7.218 1.998v5.93zm86.302 0h-35.9v-5.93c2.879 0 4.984-.31 6.316-.934 1.332-.623 2.16-1.525 2.482-2.707.322-1.182.483-3.104.483-5.768V49.693c0-3.18-.784-5.145-2.352-5.897-1.569-.752-3.878-1.128-6.93-1.128h-16.886v31.518c0 2.707.204 4.705.612 5.994.409 1.289 1.279 2.18 2.61 2.674 1.333.495 3.417.742 6.253.742v5.93H371.82v-5.93c2.88 0 4.963-.323 6.252-.967 1.29-.645 2.084-1.558 2.385-2.74.3-1.181.451-3.082.451-5.703V42.668h-9.797v-5.93h9.797v-5.285c0-8.035 1.268-14.072 3.803-18.111 1.504-2.32 3.427-4.319 5.768-5.994a32.623 32.623 0 0 1 7.413-3.996 43.472 43.472 0 0 1 7.927-2.192 45.15 45.15 0 0 1 7.831-.709c3.61 0 6.854.365 9.733 1.096 2.879.73 5.37 1.75 7.476 3.061s3.728 2.761 4.867 4.351c1.138 1.59 1.708 3.287 1.708 5.092 0 1.375-.366 2.62-1.096 3.738a7.81 7.81 0 0 1-2.9 2.643c-1.204.644-2.514.966-3.932.966-1.676 0-3.115-.386-4.318-1.16-1.204-.773-2.16-1.697-2.869-2.771-.709-1.074-1.407-2.32-2.094-3.738-1.075-2.45-2.3-4.287-3.674-5.511-1.375-1.225-3.567-1.837-6.574-1.837-4.34 0-7.498 1.257-9.475 3.77-1.977 2.514-2.965 6.757-2.965 12.73v13.857h21.27c2.535 0 5.66-.172 9.378-.515a75.314 75.314 0 0 0 10.667-1.74h1.482v39.703c0 2.406.118 4.221.354 5.446.237 1.224.924 2.191 2.063 2.9 1.139.71 2.954 1.064 5.446 1.064h2.127v5.93z" data-color="1"></path>
        <path fill="#F8B31C" d="M356.738 9.41c0 2.578-.913 4.78-2.739 6.607-1.826 1.826-4.028 2.739-6.606 2.739-2.536 0-4.738-.935-6.607-2.804-1.869-1.869-2.804-4.05-2.804-6.542 0-2.578.924-4.79 2.772-6.639C342.602.924 344.814 0 347.393 0c2.62 0 4.834.902 6.638 2.707 1.805 1.805 2.707 4.04 2.707 6.703z" data-color="2"></path>
        <path fill="#08254F" d="M285.273 109.584h.84v9.277h-.84a7.114 7.114 0 0 0-1.27-2.793c-2.33 2.63-5.305 3.946-8.925 3.946-3.828 0-6.956-1.211-9.385-3.633-2.428-2.422-3.642-5.625-3.642-9.61 0-2.617.56-5.08 1.68-7.392 1.12-2.311 2.682-4.027 4.687-5.147 2.005-1.12 4.206-1.68 6.602-1.68 1.979 0 3.772.408 5.38 1.221 1.608.814 2.81 1.716 3.604 2.706a9.67 9.67 0 0 0 1.016-3.438h.859l.234 10.04h-.84c-.586-3.569-1.78-6.05-3.584-7.442-1.803-1.394-3.837-2.09-6.103-2.09-2.774 0-4.977 1.126-6.611 3.379-1.635 2.252-2.452 5.475-2.452 9.668 0 3.971.892 7.015 2.676 9.13 1.784 2.116 4.004 3.174 6.66 3.174 1.42 0 2.871-.345 4.356-1.035 1.484-.69 2.66-1.858 3.525-3.506.866-1.647 1.377-3.239 1.533-4.775zm21.094 7.012h.723c-.117 2.226-1.211 3.34-3.281 3.34-.886 0-1.586-.235-2.1-.704-.514-.468-.85-1.165-1.006-2.09-1.302.925-2.49 1.622-3.564 2.09-1.075.47-2.035.704-2.881.704-1.08 0-2.012-.313-2.793-.938-.781-.625-1.172-1.452-1.172-2.48 0-1.342.654-2.513 1.963-3.516 1.308-1.003 3.115-1.98 5.42-2.93l3.027-1.23v-.781c0-1.107-.071-1.908-.215-2.403-.143-.495-.514-.937-1.113-1.328-.599-.39-1.387-.586-2.363-.586-1.953 0-3.04.651-3.262 1.953-.208 1.328-.755 1.992-1.64 1.992-.795 0-1.192-.377-1.192-1.132 0-.743.527-1.54 1.582-2.393 1.055-.853 2.695-1.28 4.922-1.28 1.654 0 2.936.261 3.848.782.911.52 1.513 1.113 1.806 1.777.293.664.44 1.68.44 3.047v6.465c0 1.51.078 2.48.234 2.91.156.43.495.645 1.016.645.859 0 1.393-.638 1.601-1.914zm-5.664-6.836l-2.129.86c-3.36 1.366-5.039 3.085-5.039 5.155 0 .82.215 1.482.645 1.983.43.501.99.752 1.68.752.611 0 1.321-.202 2.128-.606.808-.403 1.713-1.009 2.715-1.816v-6.328zm11.738-6.875h.528c.221.729.332 1.608.332 2.636.833-.885 1.728-1.546 2.685-1.982a7.238 7.238 0 0 1 3.037-.654c2.214 0 4.056.778 5.528 2.334 1.471 1.556 2.207 3.61 2.207 6.162 0 2.5-.74 4.59-2.217 6.27-1.478 1.68-3.421 2.519-5.83 2.519a7 7 0 0 1-2.842-.596c-.905-.397-1.76-.986-2.568-1.767v6.074c0 1.849.036 2.975.107 3.379.072.403.277.706.615.908.339.202.97.303 1.895.303v.898h-8.36v-.898h.587c.924 0 1.526-.134 1.806-.4a1.55 1.55 0 0 0 .488-.958c.046-.37.069-1.448.069-3.232V109.35c0-1.706-.023-2.78-.069-3.223-.045-.443-.23-.781-.556-1.016-.326-.234-.905-.351-1.738-.351h-.586v-.899c1.289-.13 2.916-.455 4.882-.976zm.86 13.633c.703.859 1.448 1.507 2.236 1.943a5.067 5.067 0 0 0 2.49.654c1.472 0 2.754-.631 3.848-1.894 1.094-1.263 1.64-3.275 1.64-6.035 0-2.396-.527-4.187-1.581-5.372-1.055-1.184-2.312-1.777-3.77-1.777a5.13 5.13 0 0 0-2.559.684c-.807.455-1.575 1.146-2.304 2.07v9.727zm17.715-21.797c0-.56.198-1.042.595-1.446a1.94 1.94 0 0 1 1.436-.605c.56 0 1.035.202 1.426.605.39.404.586.886.586 1.446a2.03 2.03 0 0 1-.586 1.465 1.91 1.91 0 0 1-1.426.605 1.94 1.94 0 0 1-1.436-.605 2.012 2.012 0 0 1-.595-1.465zm3.77 8.164v11.152c0 1.706.025 2.78.077 3.223.052.442.241.781.567 1.015.325.235.905.352 1.738.352h.41v.898h-8.613v-.898h.664c.924 0 1.527-.134 1.807-.4a1.55 1.55 0 0 0 .488-.957c.045-.372.068-1.449.068-3.233v-4.844c0-1.875-.088-3.02-.263-3.437-.176-.417-.41-.677-.704-.781-.293-.105-.804-.157-1.533-.157h-.527v-.898c2.318-.234 4.114-.58 5.39-1.035h.43zm14.53 1.543h-4.824v9.668c0 1.484.065 2.483.195 2.998.13.514.407.927.83 1.24.424.312.876.469 1.358.469.938 0 1.751-.534 2.441-1.602l.625.371c-.403.86-.999 1.507-1.787 1.944-.787.436-1.585.654-2.392.654-.938 0-1.761-.277-2.471-.83-.71-.554-1.152-1.201-1.328-1.944-.176-.742-.264-2.044-.264-3.906v-9.062h-2.324v-.899c1.068-.026 2.025-.475 2.871-1.347.846-.873 1.387-2.097 1.621-3.672h.625v5.02h4.824v.898zm18.301 12.168h.723c-.117 2.226-1.211 3.34-3.281 3.34-.886 0-1.586-.235-2.1-.704-.514-.468-.85-1.165-1.006-2.09-1.302.925-2.49 1.622-3.564 2.09-1.075.47-2.035.704-2.881.704-1.08 0-2.012-.313-2.793-.938-.781-.625-1.172-1.452-1.172-2.48 0-1.342.654-2.513 1.963-3.516 1.308-1.003 3.115-1.98 5.42-2.93l3.027-1.23v-.781c0-1.107-.071-1.908-.215-2.403-.143-.495-.514-.937-1.113-1.328-.599-.39-1.387-.586-2.363-.586-1.953 0-3.04.651-3.262 1.953-.208 1.328-.755 1.992-1.64 1.992-.795 0-1.192-.377-1.192-1.132 0-.743.527-1.54 1.582-2.393 1.055-.853 2.695-1.28 4.922-1.28 1.654 0 2.936.261 3.848.782.911.52 1.513 1.113 1.806 1.777.293.664.44 1.68.44 3.047v6.465c0 1.51.078 2.48.234 2.91.156.43.495.645 1.016.645.859 0 1.393-.638 1.601-1.914zm-5.664-6.836l-2.129.86c-3.36 1.366-5.039 3.085-5.039 5.155 0 .82.215 1.482.645 1.983.43.501.99.752 1.68.752.611 0 1.321-.202 2.128-.606.808-.403 1.713-1.009 2.715-1.816v-6.328zm12.93-17.09v21.367c0 1.706.023 2.78.068 3.223.046.442.231.781.557 1.015.325.235.905.352 1.738.352h.469v.898h-8.555v-.898h.547c.781 0 1.338-.107 1.67-.322a1.29 1.29 0 0 0 .596-.909c.065-.39.097-1.51.097-3.359v-15.82c0-1.68-.15-2.738-.449-3.174-.3-.436-1.029-.654-2.187-.654v-.899c.794 0 1.728-.09 2.802-.273 1.075-.182 1.813-.365 2.217-.547h.43z" data-color="1"></path>
    </g>
</svg>