<svg width="1105" height="199" fill="none" xmlns="http://www.w3.org/2000/svg"><path d="M253.9 69.7h-13.8c-7.9 0-14.3 6.4-14.3 14.3v56.4c0 10.9-7.9 19.3-18 19.3s-17.7-8.4-17.7-19.3V84c0-7.9-6.4-14.3-14.3-14.3H162c-7.9 0-14.3 6.4-14.3 14.3v67c0 13.5 4.5 24.7 13.5 33.9 9.3 9.2 20.2 13.7 33.1 13.7 12.6 0 23.3-4.5 31.4-13.4v3.6c0 3.9 3.1 7 7 7h28.4c3.9 0 7-3.1 7-7V84c.1-7.9-6.3-14.3-14.2-14.3ZM125 69.7H96.6c-3.9 0-7 3.1-7 7l-1.9-1.2c-9-5.6-18.8-8.6-29.5-8.6-16.6 0-30.3 6.5-41.6 19.1C5.6 98.6 0 114 0 132.8c0 18.8 5.6 34.5 16.6 47.1 11.2 12.6 25 18.8 41.6 18.8 11.5 0 21.9-3.4 31.5-9.8 0 3.9 3.1 7 7 7H125c3.9 0 7-3.2 7-7V76.7c0-3.9-3.1-7-7-7ZM489.3 85.9c-12.9-12.6-29.2-19.1-48.6-19.1-19.4 0-35.7 6.5-48.9 19.1-12.9 12.6-19.4 28-19.4 46.8 0 18.5 6.4 34.2 19.4 46.8 13.2 12.6 29.5 19.1 48.9 19.1s35.7-6.4 48.6-19.1c13.2-12.6 19.7-28.3 19.7-46.8-.1-18.7-6.5-34.2-19.7-46.8ZM349.1 156.3c-7 0-12.1-4.7-12.1-11.2v-38.7h11.8c7.9 0 14.3-6.4 14.3-14.3V84c0-7.9-6.4-14.3-14.3-14.3H337v-9.8c0-7.9-6.4-14.3-14.3-14.3h-14c-7.9 0-14.3 6.4-14.3 14.3v9.8h-2.2c-7.9 0-14.3 6.4-14.3 14.3v8.1c0 7.9 6.4 14.3 14.3 14.3h2.2v49c0 11.5 4.5 21 13.2 28.9 8.7 7.6 19.7 11.5 32.3 11.5h9.3c7.9 0 14.3-6.4 14.3-14.3v-10.9c-.1-7.9-6.5-14.3-14.4-14.3Z" fill="#E5E5E5"/><path d="M68.2 109.9c-13.2 0-23.9 11-23.9 24.4 0 13.2 10.7 24.1 23.9 24.1 13.5 0 23.9-10.6 23.9-24.1 0-13.5-10.4-24.4-23.9-24.4ZM440.7 109.9c-13.2 0-23.9 11-23.9 24.4 0 13.2 10.7 24.1 23.9 24.1 13.5 0 23.9-10.6 23.9-24.1 0-13.5-10.4-24.4-23.9-24.4ZM549.4 12h-13.8c-7.9 0-14.3 6.4-14.3 14.3v155.3c0 7.9 6.4 14.3 14.3 14.3h13.8c7.9 0 14.3-6.4 14.3-14.3V26.3c0-7.9-6.4-14.3-14.3-14.3ZM973.5 12h-13.8c-7.9 0-14.3 6.4-14.3 14.3v50.4c-9.6-6.5-19.9-9.8-31.5-9.8-16.6 0-30.3 6.5-41.6 19.1-11 12.6-16.6 28-16.6 46.8 0 18.8 5.6 34.5 16.6 47.1 11.2 12.6 25 18.8 41.6 18.8 11.5 0 21.9-3.4 31.5-9.8 0 3.9 3.1 7 7 7h28.4c3.9 0 7-3.2 7-7V26.3c0-7.9-6.4-14.3-14.3-14.3Zm-51 146.4c-13.2 0-23.9-10.9-23.9-24.1 0-13.5 10.7-24.4 23.9-24.4 13.5 0 23.9 11 23.9 24.4 0 13.4-10.4 24.1-23.9 24.1ZM643.7 66.9c-19.1 0-35.1 6.5-48.3 19.1-12.9 12.6-19.4 28.3-19.4 46.8 0 18.8 6.4 34.5 19.7 47.1 13.2 12.6 30 18.8 50 18.8 17.5 0 33-5.5 44.9-14.9 9.6-7.6 5.7-23-6.3-25.3l-10.5-1.9c-3.8-.7-7.9.1-11 2.5-4.4 3.4-9.9 5.2-16.3 5.2-12.4 0-20.5-5.3-24.7-16.3H697c7.8 0 14.2-6.2 14.4-14v-1.1c0-18.5-6.4-34.2-19.7-46.8-12.9-12.8-28.9-19.2-48-19.2Zm-21.9 50.4c6.2-21.3 39.6-21.3 46.3 0h-46.3ZM796.8 66.9c-12.6 0-23 4.5-31.5 13.2v-3.4c0-3.9-3.1-7-7-7H730c-3.9 0-7 3.1-7 7v104.9c0 7.9 6.4 14.3 14.3 14.3H751c7.9 0 14.3-6.4 14.3-14.3V125c0-11 7.9-19.3 18-19.3S801 114.1 801 125v56.6c0 7.9 6.4 14.3 14.3 14.3h13.8c7.9 0 14.3-6.4 14.3-14.3v-67.3c0-13.5-4.5-24.7-13.5-33.7-8.9-9.2-19.9-13.7-33.1-13.7ZM1040.28 24.355h-15.68V67h-10.55V24.355h-15.468v-8.543h41.698v8.543Zm19.83-8.543 13.14 37.126 13.08-37.126h13.85V67h-10.58V53.008l1.06-24.153L1076.84 67h-7.24l-13.78-38.11 1.05 24.118V67h-10.55V15.812h13.79Z" fill="#00A7FF"/></svg>