<?xml version="1.0" encoding="UTF-8"?> <svg xmlns="http://www.w3.org/2000/svg" width="100" height="35" fill="none"><path d="M.002.049v20.416s-.3 9.383 7.438 12.538c0 0 .764.408 2.142-.099C11.358 32.3 13.6 29.8 13.4 29.701c-2.092-.752-6.259-3.76-6.21-10.135C7.19 12.996 7.34 0 7.34 0L.002.049z" fill="#363C44"></path><path d="M32.545 18.618c0-6.522-5.346-11.753-11.92-11.753-6.874 0-12.17 5.117-12.17 11.786 0 4.953 2.888 9.072 7.155 10.886-.315.458-3.071 4.316-6.94 5.018 0 0 8.119 2.354 13.73-4.135 5.795-.818 10.145-5.689 10.145-11.802z" fill="#FF3189"></path><path d="M52.205 7.225h-2.906c-1.179 0-1.328.147-1.627 1.258-6.475-3.465-12.486-.948-15.54 2.763-.1.147-.2.294-.35.458a12.591 12.591 0 0 1 2.143 7.078c0 2.664-.764 5.067-2.043 7.126 1.378 1.75 3.105 3.106 5.297 3.907 3.62 1.308 7.073.948 10.443-.85.3 1.112.515 1.259 1.627 1.259h2.906c.963 0 1.378-.344 1.378-1.308V8.5c0-.932-.415-1.275-1.328-1.275zM41.413 24.388c-3.304-.049-5.712-2.566-5.645-5.917.05-3.057 2.656-5.525 5.76-5.476 3.205.049 5.646 2.566 5.596 5.721-.066 3.253-2.557 5.672-5.711 5.672zm57.408 5.411c-.05.196-.2.245-.415.245h-1.528c-.348 0-.614-.098-.763-.409-.565-.899-1.113-1.798-1.727-2.762a.386.386 0 0 0-.2-.196v2.86c0 .409-.149.507-.564.507h-1.278c-.349 0-.515-.147-.515-.507v-11.54c0-.245.05-.507.299-.654h1.776c.25.147.3.343.3.605v7.012c.099-.098.149-.147.199-.245.564-.899 1.178-1.798 1.726-2.713.2-.294.415-.458.764-.409h1.378c.15 0 .349.05.415.147.05.098 0 .295-.1.409-.713 1.16-1.427 2.256-2.141 3.416-.1.147-.15.294 0 .458.813 1.259 1.577 2.452 2.39 3.71-.016.017-.016.017-.016.066zM95.616 7.568c2.391 0 4.383 1.913 4.383 4.267 0 2.452-1.876 4.413-4.383 4.413-2.49 0-4.483-1.912-4.483-4.315 0-2.403 1.943-4.3 4.483-4.365zm1.993 4.365c0-1.16-.914-2.01-2.043-2.06-1.112 0-2.092.9-2.092 2.01 0 1.161.913 2.06 2.092 2.06 1.18.05 2.043-.85 2.043-2.01zM87.463 29.75c-1.676.85-3.918.343-4.831-1.112-.349-.604-.565-1.258-.565-1.912v-4.61c0-.343.15-.506.515-.506h1.328c.415 0 .515.147.515.555v4.316c.05.8.664 1.405 1.478 1.405.813 0 1.428-.604 1.428-1.454v-4.267c0-.457.1-.555.564-.555h1.279c.348 0 .514.147.514.457-.05 2.452 0 4.97 0 7.47 0 .344-.15.458-.514.458h-1.229c-.15 0-.349 0-.465-.196.033 0-.017-.05-.017-.05zM86.152 7.568c1.278 0 2.341.507 3.254 1.406.349.343.349.556-.05.85-.248.196-.564.409-.813.605-.349.245-.465.245-.814-.05-.664-.506-1.378-.653-2.141-.457-.764.245-1.378.948-1.378 1.75-.05.898.415 1.7 1.178 2.059a1.983 1.983 0 0 0 2.242-.409l.15-.147c.298-.294.414-.294.763-.098.349.147.664.343 1.013.507.415.196.465.408.199.8-.764 1.047-1.727 1.652-3.055 1.864-2.092.294-4.184-.997-4.782-2.959-.863-2.86 1.229-5.655 4.234-5.72zm-25.519.36c4.184-1.7 8.103-1.602 11.656 1.112 2.192 1.65 3.155 4.07 3.204 6.718.1 4.364.05 8.68.05 13.044 0 .997-.349 1.357-1.428 1.357h-3.42c-1.179 0-1.527-.344-1.527-1.504V17.163c0-1.912-1.063-3.367-2.757-3.906-2.905-.9-5.346 1.405-5.296 3.76.1 3.808.05 7.633.05 11.49 0 1.308-.3 1.651-1.627 1.651h-3.47c-.864 0-1.23-.343-1.329-1.21V8.222c.1-.703.465-1.046 1.18-1.046h3.668c.581.05.897.343 1.046.752z" fill="#363C44"></path><ellipse cx="79.418" cy="15.26" rx="1.017" ry="1.017" fill="#363C44"></ellipse><ellipse cx="79.418" cy="29.112" rx="1.017" ry="1.017" fill="#363C44"></ellipse></svg> 