<?xml version="1.0" encoding="UTF-8"?>
<svg id="Layer_2" data-name="Layer 2" xmlns="http://www.w3.org/2000/svg" viewBox="0 0 412.87 173.7">
  <defs>
    <style>
      .cls-1 {
        fill: #1d4289;
      }

      .cls-1, .cls-2, .cls-3, .cls-4, .cls-5 {
        stroke-width: 0px;
      }

      .cls-2 {
        fill: #3cdbc0;
      }

      .cls-3 {
        fill: #33383a;
      }

      .cls-4 {
        fill: #ffed00;
      }

      .cls-5 {
        fill: #656165;
      }
    </style>
  </defs>
  <g id="Layer_1-2" data-name="Layer 1">
    <g>
      <path class="cls-2" d="M394.17,48.05l-28.92,28.92h17.37l28.92-28.92-28.82-28.82h-17.37l28.82,28.82Z"/>
      <g>
        <path class="cls-1" d="M43.66,49.45c-3.05-2.62-8.05-4.6-14.87-5.89l-5.67-.94c-2.61-.38-5.11-1.29-7.36-2.65-1.37-.95-2.15-2.54-2.06-4.2-.09-1.86.81-3.64,2.37-4.67,2.21-1.3,4.75-1.9,7.31-1.74,4.01,0,6.99.71,8.87,2.1,1.81,1.34,2.83,3.73,3.03,7.1l.05.82h11.94l-.03-.89c-.37-12.66-8.39-19.08-23.85-19.08-6.7,0-12.06,1.5-15.92,4.45-3.86,2.86-6.08,7.43-5.93,12.23,0,9.15,6.06,14.9,18,17.09l5.6,1.06c4.21.75,7.15,1.69,8.72,2.81,1.43.98,2.25,2.62,2.17,4.35,0,4.53-3.65,6.73-11.16,6.73-4.22,0-7.3-.72-9.18-2.14-1.83-1.39-2.96-3.89-3.35-7.42l-.09-.77H0l.06.92c.8,12.92,9.11,19.48,24.69,19.48,7.32,0,13.14-1.53,17.27-4.54,4.18-2.98,6.57-7.86,6.37-12.98.21-4.26-1.53-8.38-4.73-11.2Z"/>
        <path class="cls-1" d="M69.94,5.07h-12.28v15.61h-8.75v10.38h8.75v32.77c0,4.61,1.35,8.03,4.01,10.17,2.61,2.08,6.62,3.14,11.93,3.14,1.99,0,4.18-.11,6.51-.32l.79-.07v-10.09h-5.61c-1.48.13-2.97-.19-4.26-.93-.8-.72-1.2-1.78-1.09-2.85v-31.82h10.96v-10.38h-10.97V5.07Z"/>
        <path class="cls-1" d="M131.91,65.08v-28.79c0-11.21-7.52-16.89-22.38-16.89s-23.15,6.41-23.95,19.06l-.06.92h12.16l.06-.8c.26-3.39,1.25-5.74,2.93-7.02,1.74-1.32,4.72-1.99,8.86-1.99,3.8,0,6.52.57,8.09,1.68,1.58,1.26,2.42,3.24,2.22,5.25.11,1.53-.5,3.01-1.64,4.03-1.68,1.17-3.66,1.85-5.7,1.96l-8.01.84c-14.09,1.45-21.23,7.42-21.23,17.73-.22,4.81,1.83,9.45,5.54,12.53,3.62,2.96,8.58,4.47,14.73,4.47,7.62,0,13.42-2.48,17.27-7.39.46,1.76,1.49,3.31,2.93,4.42,1.82,1.36,4.46,2.02,8.06,2.02,1.77.01,3.53-.1,5.28-.32l.75-.1v-9.74h-3.82c-1.74,0-2.09-.76-2.09-1.88h0ZM115.72,64.53c-2.98,2.45-6.76,3.73-10.61,3.59-2.48.18-4.95-.51-6.98-1.96-1.56-1.35-2.4-3.34-2.27-5.4-.13-2.06.74-4.06,2.32-5.39,1.62-1.33,4.41-2.24,8.3-2.71l7.59-.84c2-.15,3.96-.66,5.79-1.49v4.11c0,4.42-1.35,7.72-4.13,10.1Z"/>
        <path class="cls-1" d="M169.67,19.82c-7.05,0-12.46,2.75-16.11,8.17v-7.33h-11.85v56.14h12.28v-30.39c0-4.78,1.4-8.47,4.15-10.96,2.77-2.51,6.8-3.78,11.97-3.78h3.5v-11.63l-.74-.11c-1.06-.1-2.12-.14-3.18-.12Z"/>
        <path class="cls-1" d="M196.64,5.07h-12.28v15.61h-8.75v10.38h8.75v32.77c0,4.61,1.35,8.03,4.01,10.17,2.61,2.08,6.62,3.14,11.93,3.14,1.99,0,4.18-.11,6.51-.32l.79-.07v-10.09h-5.61c-1.48.13-2.97-.19-4.26-.93-.8-.72-1.2-1.78-1.09-2.85v-31.82h10.96v-10.38h-10.96V5.07Z"/>
        <path class="cls-1" d="M212.28,0h12.28v76.81h-12.28V0Z"/>
        <path class="cls-1" d="M232.83,20.67h12.28v56.14h-12.28V20.67Z"/>
        <path class="cls-1" d="M281.46,19.4c-6.3-.15-12.31,2.67-16.22,7.62v-6.35h-11.85v56.14h12.28v-31.55c0-4.79,1.33-8.53,3.95-11.08,2.35-2.38,5.55-3.74,8.89-3.77,7.15,0,10.63,3.44,10.63,10.52v35.87h12.28v-37.35c0-6.33-1.79-11.31-5.32-14.8s-8.45-5.26-14.63-5.26h0Z"/>
        <path class="cls-1" d="M360.44,49.16c0-8.61-2.37-15.78-7.06-21.34-4.79-5.59-11.4-8.42-19.64-8.42-7.3-.24-14.35,2.71-19.3,8.08-4.91,5.34-7.4,12.49-7.4,21.25s2.49,15.91,7.4,21.25c4.91,5.34,11.49,8.08,19.51,8.08,5.83.18,11.55-1.56,16.28-4.97,4.44-3.38,7.59-8.18,8.91-13.6l.29-1.09h-12.39l-.2.58c-1.99,5.71-6.14,8.49-12.68,8.49-3.79.2-7.5-1.18-10.25-3.8-2.36-2.39-3.84-5.95-4.4-10.6h40.92v-3.92ZM333.74,29.99c3.61-.16,7.12,1.22,9.65,3.8,2.38,2.54,3.9,5.78,4.33,9.23h-28.05c.43-3.56,2.01-6.89,4.5-9.48,2.59-2.41,6.04-3.69,9.58-3.56h0Z"/>
        <path class="cls-1" d="M238.97,16.25c4.49,0,8.13-3.64,8.13-8.13C247.09,3.64,243.46,0,238.97,0s-8.13,3.64-8.13,8.13h0c0,4.49,3.64,8.13,8.13,8.13Z"/>
      </g>
    </g>
    <g>
      <path class="cls-2" d="M394.17,48.05l-28.92,28.92h17.37l28.92-28.92-28.82-28.82h-17.37l28.82,28.82Z"/>
      <g>
        <path class="cls-1" d="M43.66,49.45c-3.05-2.62-8.05-4.6-14.87-5.89l-5.67-.94c-2.61-.38-5.11-1.29-7.36-2.65-1.37-.95-2.15-2.54-2.06-4.2-.09-1.86.81-3.64,2.37-4.67,2.21-1.3,4.75-1.9,7.31-1.74,4.01,0,6.99.71,8.87,2.1,1.81,1.34,2.83,3.73,3.03,7.1l.05.82h11.94l-.03-.89c-.37-12.66-8.39-19.08-23.85-19.08-6.7,0-12.06,1.5-15.92,4.45-3.86,2.86-6.08,7.43-5.93,12.23,0,9.15,6.06,14.9,18,17.09l5.6,1.06c4.21.75,7.15,1.69,8.72,2.81,1.43.98,2.25,2.62,2.17,4.35,0,4.53-3.65,6.73-11.16,6.73-4.22,0-7.3-.72-9.18-2.14-1.83-1.39-2.96-3.89-3.35-7.42l-.09-.77H0l.06.92c.8,12.92,9.11,19.48,24.69,19.48,7.32,0,13.14-1.53,17.27-4.54,4.18-2.98,6.57-7.86,6.37-12.98.21-4.26-1.53-8.38-4.73-11.2Z"/>
        <path class="cls-1" d="M69.94,5.07h-12.28v15.61h-8.75v10.38h8.75v32.77c0,4.61,1.35,8.03,4.01,10.17,2.61,2.08,6.62,3.14,11.93,3.14,1.99,0,4.18-.11,6.51-.32l.79-.07v-10.09h-5.61c-1.48.13-2.97-.19-4.26-.93-.8-.72-1.2-1.78-1.09-2.85v-31.82h10.96v-10.38h-10.97V5.07Z"/>
        <path class="cls-1" d="M131.91,65.08v-28.79c0-11.21-7.52-16.89-22.38-16.89s-23.15,6.41-23.95,19.06l-.06.92h12.16l.06-.8c.26-3.39,1.25-5.74,2.93-7.02,1.74-1.32,4.72-1.99,8.86-1.99,3.8,0,6.52.57,8.09,1.68,1.58,1.26,2.42,3.24,2.22,5.25.11,1.53-.5,3.01-1.64,4.03-1.68,1.17-3.66,1.85-5.7,1.96l-8.01.84c-14.09,1.45-21.23,7.42-21.23,17.73-.22,4.81,1.83,9.45,5.54,12.53,3.62,2.96,8.58,4.47,14.73,4.47,7.62,0,13.42-2.48,17.27-7.39.46,1.76,1.49,3.31,2.93,4.42,1.82,1.36,4.46,2.02,8.06,2.02,1.77.01,3.53-.1,5.28-.32l.75-.1v-9.74h-3.82c-1.74,0-2.09-.76-2.09-1.88h0ZM115.72,64.53c-2.98,2.45-6.76,3.73-10.61,3.59-2.48.18-4.95-.51-6.98-1.96-1.56-1.35-2.4-3.34-2.27-5.4-.13-2.06.74-4.06,2.32-5.39,1.62-1.33,4.41-2.24,8.3-2.71l7.59-.84c2-.15,3.96-.66,5.79-1.49v4.11c0,4.42-1.35,7.72-4.13,10.1Z"/>
        <path class="cls-1" d="M169.67,19.82c-7.05,0-12.46,2.75-16.11,8.17v-7.33h-11.85v56.14h12.28v-30.39c0-4.78,1.4-8.47,4.15-10.96,2.77-2.51,6.8-3.78,11.97-3.78h3.5v-11.63l-.74-.11c-1.06-.1-2.12-.14-3.18-.12Z"/>
        <path class="cls-1" d="M196.64,5.07h-12.28v15.61h-8.75v10.38h8.75v32.77c0,4.61,1.35,8.03,4.01,10.17,2.61,2.08,6.62,3.14,11.93,3.14,1.99,0,4.18-.11,6.51-.32l.79-.07v-10.09h-5.61c-1.48.13-2.97-.19-4.26-.93-.8-.72-1.2-1.78-1.09-2.85v-31.82h10.96v-10.38h-10.96V5.07Z"/>
        <path class="cls-1" d="M212.28,0h12.28v76.81h-12.28V0Z"/>
        <path class="cls-1" d="M232.83,20.67h12.28v56.14h-12.28V20.67Z"/>
        <path class="cls-1" d="M281.46,19.4c-6.3-.15-12.31,2.67-16.22,7.62v-6.35h-11.85v56.14h12.28v-31.55c0-4.79,1.33-8.53,3.95-11.08,2.35-2.38,5.55-3.74,8.89-3.77,7.15,0,10.63,3.44,10.63,10.52v35.87h12.28v-37.35c0-6.33-1.79-11.31-5.32-14.8s-8.45-5.26-14.63-5.26h0Z"/>
        <path class="cls-1" d="M360.44,49.16c0-8.61-2.37-15.78-7.06-21.34-4.79-5.59-11.4-8.42-19.64-8.42-7.3-.24-14.35,2.71-19.3,8.08-4.91,5.34-7.4,12.49-7.4,21.25s2.49,15.91,7.4,21.25c4.91,5.34,11.49,8.08,19.51,8.08,5.83.18,11.55-1.56,16.28-4.97,4.44-3.38,7.59-8.18,8.91-13.6l.29-1.09h-12.39l-.2.58c-1.99,5.71-6.14,8.49-12.68,8.49-3.79.2-7.5-1.18-10.25-3.8-2.36-2.39-3.84-5.95-4.4-10.6h40.92v-3.92ZM333.74,29.99c3.61-.16,7.12,1.22,9.65,3.8,2.38,2.54,3.9,5.78,4.33,9.23h-28.05c.43-3.56,2.01-6.89,4.5-9.48,2.59-2.41,6.04-3.69,9.58-3.56h0Z"/>
        <path class="cls-1" d="M238.97,16.25c4.49,0,8.13-3.64,8.13-8.13C247.09,3.64,243.46,0,238.97,0s-8.13,3.64-8.13,8.13h0c0,4.49,3.64,8.13,8.13,8.13Z"/>
      </g>
    </g>
    <g>
      <g>
        <path class="cls-3" d="M7.4,150.87v-9.11h2.95c2.79,0,5.03-.16,6.86-1.33,2-1.26,2.99-3.37,2.99-5.8,0-2.62-1.23-4.73-3.3-5.8-1.9-.97-3.39-1.13-6.51-1.13H3.87v23.17h3.53ZM11.24,138.85h-3.84v-8.2h3.6c3.66,0,5.5,1.23,5.5,4.02,0,3.01-2.28,4.18-5.26,4.18ZM31.94,151.45c5.6,0,9.37-3.66,9.37-9.01s-3.87-9.1-9.37-9.1-9.37,3.63-9.37,9.1,3.77,9.01,9.37,9.01ZM31.94,148.63c-3.53,0-5.84-2.59-5.84-6.22s2.34-6.25,5.84-6.25,5.84,2.69,5.84,6.25-2.31,6.22-5.84,6.22ZM52.64,150.87l1.73-6.68c.65-2.46,1.26-5.22,1.77-7.71h.1c.48,2.53.99,5.31,1.6,7.74l1.66,6.64h4.11l5.53-17.01h-3.43l-2.04,6.97c-.71,2.46-1.25,4.7-2,7.32h-.07c-.64-2.53-1.18-5.25-1.73-7.39l-1.83-6.9h-3.6l-1.83,6.87c-.41,1.49-1.43,5.7-1.8,7.32h-.1c-.44-1.68-1.53-5.99-1.9-7.26l-2.04-6.93h-3.53l5.47,17.01h3.93ZM80.07,151.45c3.66,0,6.65-1.46,8.45-3.63l-2.21-1.98c-1.32,1.43-3.19,2.79-6.07,2.79-3.19,0-5.53-2.2-5.81-5.51h13.95c.04-.32.04-.68.04-1,0-5.05-3.16-8.78-8.52-8.78s-8.86,3.73-8.86,9.04,3.73,9.07,9.03,9.07ZM84.92,140.66h-10.49c.31-2.82,2.28-4.57,5.4-4.57s4.89,1.72,5.09,4.57ZM95.82,150.87v-8.98c0-3.21.61-5.51,3.83-5.51.38,0,.92.03,1.22.1v-2.98c-.23-.03-.47-.07-.91-.07-2.04,0-3.67,1.01-4.25,2.59h-.03v-2.17h-3.29c.03.94.03,1.85.03,2.82v14.19h3.4ZM111.8,151.45c3.67,0,6.66-1.46,8.45-3.63l-2.2-1.98c-1.33,1.43-3.19,2.79-6.08,2.79-3.19,0-5.53-2.2-5.8-5.51h13.95c.03-.32.03-.68.03-1,0-5.05-3.15-8.78-8.52-8.78s-8.86,3.73-8.86,9.04,3.74,9.07,9.03,9.07ZM116.66,140.66h-10.49c.3-2.82,2.27-4.57,5.4-4.57s4.88,1.72,5.09,4.57ZM131.66,151.45c2.61,0,4.99-1.17,6.18-2.66v2.07h3.19c-.03-.37-.03-.75-.04-1.14v-22.03h-3.39v6.16c0,.68,0,1.3.03,2.11-1.19-1.56-3.15-2.62-6.01-2.62-5.05,0-8.68,3.76-8.68,9.01s3.39,9.1,8.72,9.1ZM132.17,148.63c-3.57,0-5.7-2.69-5.7-6.25s2.13-6.22,5.7-6.22,5.7,2.59,5.7,6.22-2.14,6.25-5.7,6.25ZM163.97,151.45c5.09,0,8.76-3.76,8.76-9.01s-3.43-9.1-8.69-9.1c-2.72,0-4.86,1.17-6.01,2.69h-.07c.04-1.72.04-3.18.04-4.89v-3.43h-3.4v23.17h3.19v-2.11c1.22,1.56,3.36,2.69,6.18,2.69ZM163.46,148.63c-3.6,0-5.7-2.66-5.7-6.32s2.14-6.16,5.7-6.16,5.7,2.62,5.7,6.16-2.13,6.32-5.7,6.32ZM182.37,156.7l9.5-22.84h-3.63l-3.43,9.14c-.61,1.65-.98,2.92-1.56,4.5h-.07c-.44-1.36-.95-2.79-1.53-4.41l-3.42-9.23h-3.6l6.82,17.11-2.55,5.73h3.47Z"/>
        <path class="cls-5" d="M380.66,108.71c-1.26-1.17-3.59-2.01-5.21-2.01h-159.53c-1.61,0-3.05,1.17-3.05,2.85v61.47c0,1.34,1.44,2.68,3.05,2.68h159.53c1.62,0,3.95-.84,5.03-2.01l31.58-29.48c1.08-1.01,1.08-2.85,0-4.02l-31.4-29.48Z"/>
      </g>
      <path class="cls-4" d="M227.78,151.95l19.15-21.43h-19.33v-12.56h39.19v10.21l-18.97,21.43h20.05v12.56h-40.09v-10.21ZM273.41,127.17h14.68v23.27c0,1.67.71,2.85,2.68,2.85,1.61,0,3.04-1.01,4.47-2.51v-23.61h14.68v35h-13.78l-.9-3.68c-2.32,2.34-6.26,4.52-10.37,4.52-8.42,0-11.46-4.35-11.46-12.89v-22.94ZM315.29,117.96h14.67v9.21h8.77v8.87h-8.77v13.23c0,2.01.9,2.85,2.51,2.85s4.29-1.17,4.29-1.17l4.3,8.2s-5.91,3.68-12.89,3.68c-8.95,0-12.7-4.02-12.7-13.23v-31.65h-.18ZM361.64,153.29c3.22,0,4.83-3.35,4.83-8.71,0-5.02-1.61-8.37-4.83-8.37s-4.84,3.35-4.84,8.37c-.17,5.36,1.44,8.71,4.84,8.71ZM361.64,126.33c11.09,0,19.5,7.37,19.5,18.08,0,11.39-7.87,18.59-19.5,18.59s-19.51-7.03-19.51-18.59c-.18-10.72,8.23-18.08,19.51-18.08Z"/>
    </g>
  </g>
</svg>