<svg xmlns="http://www.w3.org/2000/svg" width="112" height="40">
    <path fill="#6B676F" d="M93.7 1.2C93 .5 91.7 0 90.8 0H1.9C1 0 .2.7.2 1.7v36.7c0 .8.8 1.6 1.7 1.6h88.9c.9 0 2.2-.5 2.8-1.2l17.6-17.6c.6-.6.6-1.7 0-2.4L93.7 1.2z"/>
    <path fill="#FFED00" d="M8.5 27.1l10.7-12.8H8.4V6.8h21.9v6.1L19.7 25.7h11.2v7.5H8.5zM34 12.3h8.2v13.9c0 1 .4 1.7 1.5 1.7.9 0 1.7-.6 2.5-1.5V12.3h8.2v20.9h-7.7l-.5-2.2c-1.3 1.4-3.5 2.7-5.8 2.7-4.7 0-6.4-2.6-6.4-7.7V12.3zm23.4-5.5h8.2v5.5h4.9v5.3h-4.9v7.9c0 1.2.5 1.7 1.4 1.7.9 0 2.4-.7 2.4-.7l2.4 4.9s-3.3 2.2-7.2 2.2c-5 0-7.1-2.4-7.1-7.9V6.8zm25.9 21.1c1.8 0 2.7-2 2.7-5.2 0-3-.9-5-2.7-5-1.8 0-2.7 2-2.7 5-.1 3.2.8 5.2 2.7 5.2m0-16.1c6.2 0 10.9 4.4 10.9 10.8 0 6.8-4.4 11.1-10.9 11.1s-10.9-4.2-10.9-11.1c-.1-6.4 4.6-10.8 10.9-10.8"/>
</svg>