<svg xmlns="http://www.w3.org/2000/svg" width="122" height="20" viewBox="0 0 122 20" fill="none"><path fill-rule="evenodd" clip-rule="evenodd" d="M8.15363 5.84169C7.8172 6.38591 7.55465 6.97626 7.36 7.58798C7.0922 8.45513 7.76769 9.3264 8.70459 9.30689C9.28707 9.29414 9.81853 8.93483 9.97793 8.39999C10.9628 5.09682 15.1722 3.3314 18.4202 5.36311C20.3867 6.59594 21.3483 8.95433 20.7917 11.1439C20.2689 13.1918 18.6576 14.5953 16.7677 15.0724C16.1061 16.1784 15.1778 17.1187 14.065 17.8096C19.6722 18.7056 24.5922 13.7255 23.5679 8.39362C22.5872 3.33253 16.7253 0.41154 11.8686 2.56927C11.5041 2.73093 11.159 2.91508 10.8323 3.12287C9.71951 3.81298 8.80324 4.75401 8.15363 5.84169ZM15.5503 14.1584C15.8867 13.6142 16.1492 13.0238 16.3439 12.4121C16.6124 11.5449 15.9362 10.6737 14.9993 10.6932C14.4168 10.7059 13.8854 11.0652 13.726 11.6001C12.741 14.9032 8.53172 16.6687 5.28368 14.6369C3.31723 13.4041 2.35557 11.0457 2.91217 8.85611C3.435 6.80827 5.04627 5.40479 6.93621 4.92771C7.59782 3.82165 8.5261 2.88137 9.63891 2.1905C4.03135 1.29448 -0.888341 6.27456 0.135954 11.6064C1.11674 16.6675 6.97897 19.5881 11.8353 17.4308C12.1998 17.2691 12.5449 17.085 12.8716 16.8772C13.9844 16.1871 14.9007 15.246 15.5503 14.1584Z" fill="#FF2048"></path><path d="M40.8532 15.2431V18H30.0896V3.21202H33.0367V15.2431H40.8532ZM46.5238 7.48997C49.7138 7.48997 52.0693 9.79267 52.0693 12.877C52.0693 15.9614 49.7138 18.2641 46.5238 18.2641C43.3444 18.2641 40.9994 15.9614 40.9994 12.877C40.9994 9.79267 43.3444 7.48997 46.5238 7.48997ZM46.5238 10.0567C44.971 10.0567 43.8091 11.2187 43.8091 12.877C43.8091 14.5354 44.971 15.6973 46.5238 15.6973C48.0765 15.6973 49.249 14.5354 49.249 12.877C49.249 11.2187 48.0765 10.0567 46.5238 10.0567ZM63.3416 7.7646V18H60.6481V16.8698C59.9827 17.6937 58.9898 18.2641 57.5849 18.2641C54.7646 18.2641 52.6309 15.9508 52.6309 12.877C52.6309 9.80323 54.7646 7.48997 57.5849 7.48997C58.9898 7.48997 59.9721 8.06036 60.6481 8.89483V7.7646H63.3416ZM58.0919 10.0567C56.4758 10.0567 55.4512 11.3137 55.4512 12.877C55.4512 14.4403 56.4758 15.6973 58.0919 15.6973C59.6658 15.6973 60.7326 14.4931 60.7326 12.877C60.7326 11.2609 59.6658 10.0567 58.0919 10.0567ZM70.8784 7.48997C73.2022 7.48997 74.8606 9.10608 74.8606 11.4827V18H72.1037V12.37C72.1037 10.8912 71.3643 10.0779 70.1073 10.0779C68.9243 10.0779 67.9419 10.849 67.9419 12.3911V18H65.185V7.7646H67.868V8.96877C68.5968 7.88079 69.7165 7.48997 70.8784 7.48997ZM87.6167 3.21202V5.96892H83.0324V18H80.0854V5.96892H75.5011V3.21202H87.6167ZM96.7912 7.7646V13.6375C96.7912 16.8698 94.5096 18.2641 91.9534 18.2641C89.3867 18.2641 87.1051 16.8698 87.1051 13.6375V7.7646H89.862V13.3946C89.862 15.0318 90.7598 15.6973 91.9534 15.6973C93.1365 15.6973 94.0449 15.0318 94.0449 13.3946V7.7646H96.7912ZM104.299 7.48997C107.13 7.48997 109.264 9.80323 109.264 12.877C109.264 15.9508 107.13 18.2641 104.31 18.2641C102.894 18.2641 101.912 17.6937 101.246 16.8698V18H98.5529V2.7895H101.299V8.83145C101.965 8.02867 102.926 7.48997 104.299 7.48997ZM103.792 10.0567C102.229 10.0567 101.162 11.2609 101.162 12.877C101.162 14.4931 102.229 15.6973 103.792 15.6973C105.419 15.6973 106.433 14.4403 106.433 12.877C106.433 11.3137 105.419 10.0567 103.792 10.0567ZM114.995 7.48997C117.942 7.48997 119.959 9.67648 119.97 12.8665C119.97 13.1833 119.949 13.5636 119.917 13.796H112.66C112.956 15.2748 113.991 15.9191 115.29 15.9191C116.178 15.9191 117.139 15.56 117.878 14.9368L119.494 16.7113C118.332 17.7782 116.854 18.2641 115.132 18.2641C111.995 18.2641 109.819 16.1304 109.819 12.9087C109.819 9.68704 111.931 7.48997 114.995 7.48997ZM114.973 9.86661C113.674 9.86661 112.914 10.6483 112.671 11.9158H117.202C116.949 10.606 116.157 9.86661 114.973 9.86661Z" fill="#08273B"></path></svg>