<svg width="342" height="515" viewBox="0 0 342 515" fill="none" xmlns="http://www.w3.org/2000/svg">
<path fill-rule="evenodd" clip-rule="evenodd" d="M108.942 205.17L153.585 226.332L181.429 239.537L226.072 260.7L117.13 487.99L81.6592 412.048L0.00390625 432.46L108.942 205.17Z" fill="url(#paint0_linear_821_18917)"/>
<path fill-rule="evenodd" clip-rule="evenodd" d="M168.556 380.692L152.857 413.446L149.67 398.946L129.709 306.613C111.931 264.387 141.38 282.58 141.38 282.58L168.556 380.692Z" fill="#D10A2E"/>
<path fill-rule="evenodd" clip-rule="evenodd" d="M108.948 205.17L153.587 226.332L181.431 239.537L226.074 260.7L194.952 325.626L194.18 325.691C187.56 326.483 181.382 323.025 178.137 317.27C178.055 317.148 177.977 317.024 177.899 316.893L162.287 322.607L159.005 323.656L156.204 323.267C149.554 322.591 144.279 317.845 142.388 311.5L127.051 313.551L123.56 313.948L120.746 312.885C114.424 310.764 110.314 304.984 109.859 298.392L94.2875 297.051L90.85 296.657L88.4132 295.078C82.6622 291.649 79.8852 285.094 80.8697 278.539C80.8738 278.502 80.8778 278.461 80.8819 278.42L74.7617 276.493L108.948 205.17Z" fill="#D10A2E"/>
<path fill-rule="evenodd" clip-rule="evenodd" d="M260.326 243.044L211.808 252.348L181.539 258.147L133.02 267.451L181.526 514.788L234.898 450.16L308.829 490.385L260.326 243.044Z" fill="url(#paint1_linear_821_18917)"/>
<path fill-rule="evenodd" clip-rule="evenodd" d="M260.326 243.044L211.803 252.347L181.539 258.147L133.02 267.451L141.679 311.592L142.385 311.5C144.276 317.845 149.551 322.591 156.2 323.267L159.002 323.656L162.284 322.607L177.896 316.893C177.974 317.024 178.052 317.148 178.134 317.27C181.379 323.025 187.556 326.483 194.177 325.691L196.86 325.47L199.903 323.751L214.433 314.317C214.597 314.49 214.761 314.658 214.929 314.821C219.413 319.712 226.255 321.663 232.531 319.349L234.996 318.542L237.552 316.236L248.853 304.479C248.919 304.521 248.976 304.553 249.038 304.595C254.432 308.321 261.545 308.739 267.119 305.178L269.306 303.89L271.357 301.071L271.619 300.64L260.326 243.044Z" fill="#D10A2E"/>
<path fill-rule="evenodd" clip-rule="evenodd" d="M187.506 0.420269C187.506 0.420269 189.348 0.264408 190.804 3.71833C192.371 7.45529 202.372 42.9256 201.748 45.1694C201.748 45.1694 185.484 14.7118 187.506 0.420269Z" fill="#D00B2E"/>
<path fill-rule="evenodd" clip-rule="evenodd" d="M149.422 22.4238C149.422 22.4238 148.364 23.9415 150.633 26.9237C153.081 30.152 178.814 56.5323 181.066 57.1147C181.066 57.1147 162.807 27.8098 149.422 22.4238Z" fill="#FF2048"/>
<path fill-rule="evenodd" clip-rule="evenodd" d="M172.816 8.90753L164.111 13.9366L149.422 22.4238C163.233 33.0153 170.699 43.7011 181.065 57.1147L191.259 50.8879L201.748 45.1696C195.307 29.4834 189.782 17.6818 187.505 0.420429L172.816 8.90753Z" fill="#FF2048"/>
<path fill-rule="evenodd" clip-rule="evenodd" d="M156.547 28.3759C166.117 37.0968 172.635 46.2033 181.065 57.1147L191.258 50.8879L201.747 45.1696C196.193 31.6493 191.32 21.0127 188.625 7.28314C187.776 11.2088 191.833 26.0664 194.45 33.7413C197.075 41.4203 195.968 44.1154 192.994 43.779C190.015 43.4426 180.265 17.1445 173.07 19.9708C165.875 22.7971 186.96 47.9877 185.146 49.0337C177.8 53.2835 162.458 32.843 156.547 28.3759Z" fill="#FF2048"/>
<path fill-rule="evenodd" clip-rule="evenodd" d="M149.799 25.6476C149.799 25.6476 149.823 24.7452 150.746 24.4662C151.665 24.1914 153.449 25.6641 153.449 25.6641L151.037 23.4613L149.421 22.4234C149.421 22.4234 148.24 23.7361 149.799 25.6476Z" fill="#FF2048"/>
<path fill-rule="evenodd" clip-rule="evenodd" d="M190.097 2.36868C190.097 2.36868 189.297 1.93799 188.596 2.59842C187.902 3.25885 188.284 5.53955 188.284 5.53955L187.578 2.34815L187.492 0.428422C187.492 0.428422 189.223 0.0633326 190.097 2.36868Z" fill="#FF2048"/>
<path fill-rule="evenodd" clip-rule="evenodd" d="M180.857 43.7132C180.02 42.2611 169.687 28.1501 169.65 22.8503C169.609 17.5504 174.003 17.1935 177.075 18.3216C180.143 19.4496 180.373 15.446 181.161 12.2095C181.952 8.97302 187.137 3.91929 185.295 4.50178C183.454 5.08017 171.028 12.2588 164.592 15.9752C158.156 19.6958 154.772 22.0134 155.104 23.6337C156.072 28.3347 187.851 52.4014 180.857 43.7132Z" fill="#FF2048"/>
<path fill-rule="evenodd" clip-rule="evenodd" d="M158.989 20.6062C158.103 21.4841 156.97 23.4039 158.944 25.7749C160.917 28.1417 167.439 35.1357 168.271 34.5943C169.108 34.0528 163 27.6618 163.784 23.8879C164.563 20.1099 165.38 18.908 170.113 16.4181C174.843 13.9281 184.171 6.4214 182.867 6.56907C181.562 6.72085 162.123 18.1901 158.989 20.6062Z" fill="#FF365A"/>
<path fill-rule="evenodd" clip-rule="evenodd" d="M158.359 2.9264C158.359 2.9264 160.144 2.42596 162.215 5.54761C164.459 8.9277 180.904 41.8999 180.716 44.2217C180.716 44.2217 159.044 17.341 158.359 2.9264Z" fill="#D00B2E"/>
<path fill-rule="evenodd" clip-rule="evenodd" d="M125.058 31.6573C125.058 31.6573 124.303 33.3474 127.085 35.8537C130.104 38.5693 160.311 59.6702 162.633 59.8179C162.633 59.8179 139.219 34.4467 125.058 31.6573Z" fill="#FF2048"/>
<path fill-rule="evenodd" clip-rule="evenodd" d="M145.511 14.0062L137.902 20.5736L125.059 31.6573C140.609 39.4799 149.942 48.5824 162.633 59.8179L171.481 51.7984L180.715 44.2219C171.457 30.0165 163.819 19.4537 158.359 2.92662L145.511 14.0062Z" fill="#FF2048"/>
<path fill-rule="evenodd" clip-rule="evenodd" d="M133.172 36.1737C144.206 42.9503 152.308 50.6785 162.633 59.8179L171.481 51.7984L180.715 44.2219C172.732 31.9773 165.959 22.44 160.742 9.45298V9.45708C160.643 13.4689 167.399 27.3092 171.411 34.3606C175.423 41.412 174.841 44.2629 171.854 44.4926C168.868 44.7182 154.375 20.7049 147.833 24.8274C141.294 28.95 166.714 49.7555 165.131 51.1256C158.703 56.6675 139.817 39.4553 133.172 36.1737Z" fill="#FF2048"/>
<path fill-rule="evenodd" clip-rule="evenodd" d="M126.036 34.7544C126.036 34.7544 125.892 33.8601 126.745 33.4171C127.599 32.9741 129.625 34.0899 129.625 34.0899L126.844 32.3752L125.06 31.6574C125.06 31.6574 124.149 33.171 126.036 34.7544Z" fill="#FF2048"/>
<path fill-rule="evenodd" clip-rule="evenodd" d="M161.268 4.35417C161.268 4.35417 160.407 4.07932 159.845 4.85871C159.279 5.6381 160.083 7.80811 160.083 7.80811L158.799 4.80538L158.348 2.93488C158.348 2.93488 159.98 2.25392 161.268 4.35417Z" fill="#FF2048"/>
<path fill-rule="evenodd" clip-rule="evenodd" d="M159.921 46.6956C158.83 45.4281 146.044 33.4952 145.014 28.2979C143.985 23.0965 148.235 21.9233 151.463 22.4566C154.687 22.994 154.166 19.0232 154.334 15.6923C154.507 12.3615 158.658 6.42992 156.955 7.34468C155.253 8.25943 144.391 17.6326 138.759 22.4894C133.131 27.3463 130.243 30.2546 130.875 31.7846C132.696 36.2189 168.417 53.9234 159.921 46.6956Z" fill="#FF2048"/>
<path fill-rule="evenodd" clip-rule="evenodd" d="M134.116 28.0885C133.411 29.114 132.664 31.2102 135.043 33.1668C137.422 35.1235 145.138 40.7802 145.856 40.0911C146.574 39.4019 139.379 34.2662 139.441 30.4103C139.502 26.5543 140.08 25.2212 144.265 21.8903C148.44 18.5636 156.206 9.44471 154.95 9.8344C153.699 10.2241 136.75 25.1268 134.116 28.0885Z" fill="#FF365A"/>
<path fill-rule="evenodd" clip-rule="evenodd" d="M127.004 12.1071C127.004 12.1071 128.641 11.2457 131.319 13.8669C134.219 16.7014 157.183 45.5223 157.478 47.8276C157.478 47.8276 130.679 26.0622 127.004 12.1071Z" fill="#D00B2E"/>
<path fill-rule="evenodd" clip-rule="evenodd" d="M100.428 47.1507C100.428 47.1507 100.043 48.9596 103.291 50.8302C106.803 52.8566 140.747 67.1973 143.053 66.8568C143.053 66.8568 114.859 46.925 100.428 47.1507Z" fill="#FF2048"/>
<path fill-rule="evenodd" clip-rule="evenodd" d="M116.752 25.6232L110.677 33.6345L100.426 47.1508C117.269 51.5605 128.287 58.5134 143.05 66.8569L150.028 57.1638L157.477 47.8276C145.462 35.866 135.79 27.1328 127.003 12.107L116.752 25.6232Z" fill="#FF2048"/>
<path fill-rule="evenodd" clip-rule="evenodd" d="M109.305 49.8745C121.512 54.2022 131.046 60.0681 143.052 66.8569L150.03 57.1638L157.479 47.8276C147.121 37.5191 138.507 29.6022 130.697 17.9934C131.439 21.9396 140.936 34.0652 146.33 40.1281C151.72 46.1868 151.744 49.0992 148.873 49.9401C145.997 50.7851 126.816 30.3242 121.279 35.7184C115.745 41.1167 144.943 56.1629 143.676 57.8283C138.548 64.5926 116.487 51.6999 109.305 49.8745Z" fill="#FF2048"/>
<path fill-rule="evenodd" clip-rule="evenodd" d="M102.032 49.9771C102.032 49.9771 101.704 49.132 102.442 48.5208C103.184 47.9096 105.4 48.5741 105.4 48.5741L102.323 47.4789L100.428 47.1507C100.428 47.1507 99.8536 48.8203 102.032 49.9771Z" fill="#FF2048"/>
<path fill-rule="evenodd" clip-rule="evenodd" d="M130.147 12.8943C130.147 12.8943 129.248 12.8081 128.858 13.686C128.469 14.5679 129.708 16.5205 129.708 16.5205L127.821 13.8501L126.996 12.1149C126.996 12.1149 128.444 11.1099 130.147 12.8943Z" fill="#FF2048"/>
<path fill-rule="evenodd" clip-rule="evenodd" d="M137.661 54.5834C136.324 53.5702 121.335 44.5703 119.243 39.7012C117.155 34.832 121.064 32.7974 124.329 32.6457C127.599 32.498 126.257 28.72 125.728 25.4301C125.203 22.1362 128.025 15.4704 126.549 16.7215C125.08 17.9685 116.412 29.4009 111.917 35.3243C107.421 41.2476 105.206 44.6933 106.141 46.0593C108.852 50.0178 147.481 59.8791 137.661 54.5834Z" fill="#FF2048"/>
<path fill-rule="evenodd" clip-rule="evenodd" d="M108.542 41.7685C108.066 42.9171 107.77 45.1281 110.506 46.5474C113.242 47.9626 121.967 51.8841 122.525 51.0596C123.087 50.2351 114.978 46.7156 114.235 42.9294C113.489 39.1473 113.78 37.7239 117.172 33.5932C120.565 29.4624 126.258 18.9283 125.114 19.5724C123.969 20.2164 110.498 38.3228 108.542 41.7685Z" fill="#FF365A"/>
<path fill-rule="evenodd" clip-rule="evenodd" d="M98.9648 27.133C98.9648 27.133 100.392 25.9557 103.551 27.9821C106.964 30.1726 135.305 53.7225 136.064 55.9253C136.064 55.9253 105.401 40.0545 98.9648 27.133Z" fill="#D00B2E"/>
<path fill-rule="evenodd" clip-rule="evenodd" d="M80.0586 66.8489C80.0586 66.8489 80.0505 68.699 83.611 69.8722C87.4628 71.1397 123.614 78.2855 125.801 77.4856C125.801 77.4856 94.1491 63.6945 80.0586 66.8489Z" fill="#FF2048"/>
<path fill-rule="evenodd" clip-rule="evenodd" d="M91.6715 42.4498L87.3561 51.5276L80.0586 66.8487C97.4472 67.743 109.651 72.3127 125.801 77.4854L130.661 66.578L136.064 55.925C121.867 46.6544 110.627 40.0624 98.9648 27.1328L91.6715 42.4498Z" fill="#FF2048"/>
<path fill-rule="evenodd" clip-rule="evenodd" d="M89.3047 67.7143C102.136 69.47 112.666 73.2808 125.801 77.4854L130.661 66.578L136.064 55.925C123.823 47.9343 113.786 41.9329 103.781 32.1496C105.307 35.866 117.067 45.8053 123.577 50.6457C130.091 55.4861 130.707 58.3329 128.065 59.7399C125.419 61.151 102.48 45.0136 98.1569 51.421C93.8334 57.8283 125.481 66.6314 124.578 68.5183C120.932 76.185 96.7089 68.0384 89.3047 67.7143Z" fill="#FF2048"/>
<path fill-rule="evenodd" clip-rule="evenodd" d="M82.2056 69.2896C82.2056 69.2896 81.7133 68.5307 82.3163 67.78C82.9193 67.0334 85.2206 67.2303 85.2206 67.2303L81.984 66.7873L80.0602 66.8488C80.0602 66.8488 79.8387 68.6004 82.2056 69.2896Z" fill="#FF2048"/>
<path fill-rule="evenodd" clip-rule="evenodd" d="M102.206 27.2723C102.206 27.2723 101.303 27.3667 101.102 28.3102C100.901 29.2495 102.509 30.9067 102.509 30.9067L100.122 28.6794L98.9609 27.1493C98.9609 27.1493 100.179 25.8653 102.206 27.2723Z" fill="#FF2048"/>
<path fill-rule="evenodd" clip-rule="evenodd" d="M118.027 66.5656C116.517 65.8437 100.011 60.0762 96.971 55.7321C93.9396 51.3881 97.3485 48.6028 100.523 47.7906C103.69 46.9784 101.606 43.5573 100.425 40.4397C99.2394 37.3222 100.647 30.2256 99.4611 31.7475C98.2715 33.2693 92.106 46.2195 88.9105 52.9387C85.7109 59.6496 84.2423 63.4727 85.436 64.6213C88.894 67.9439 128.721 69.757 118.027 66.5656Z" fill="#FF2048"/>
<path fill-rule="evenodd" clip-rule="evenodd" d="M86.9139 59.9327C86.6801 61.1551 86.8402 63.3784 89.806 64.207C92.7759 65.0397 102.112 67.1071 102.493 66.1883C102.875 65.2653 94.2238 63.4687 92.7225 59.9122C91.2252 56.3598 91.2211 54.9077 93.7069 50.1739C96.1887 45.4402 99.6222 33.9668 98.6336 34.8323C97.6409 35.6937 88.1281 56.1588 86.9139 59.9327Z" fill="#FF365A"/>
<path fill-rule="evenodd" clip-rule="evenodd" d="M73.7227 48.4266C73.7227 48.4266 74.8711 46.9744 78.3783 48.2871C82.1768 49.7105 114.846 66.7545 116.052 68.748C116.052 68.748 82.7348 59.699 73.7227 48.4266Z" fill="#D00B2E"/>
<path fill-rule="evenodd" clip-rule="evenodd" d="M63.6133 91.2356C63.6133 91.2356 63.9866 93.0446 67.7153 93.4425C71.7476 93.865 108.592 93.2332 110.561 91.9862C110.561 91.9862 76.7152 85.181 63.6133 91.2356Z" fill="#FF2048"/>
<path fill-rule="evenodd" clip-rule="evenodd" d="M69.8196 64.9334L67.5102 74.7208L63.6133 91.2357C80.7926 88.4422 93.6893 90.3373 110.561 91.9863L113.022 80.3037L116.05 68.7482C100.22 62.6772 87.84 58.6039 73.7208 48.4268L69.8196 64.9334Z" fill="#FF2048"/>
<path fill-rule="evenodd" clip-rule="evenodd" d="M72.832 90.1281C85.7412 89.1436 96.8372 90.645 110.563 91.9863L113.024 80.3037L116.051 68.7482C102.408 63.5181 91.324 59.7689 79.4814 52.3114V52.3155C81.7581 55.6217 95.3483 62.866 102.736 66.2214C110.12 69.5769 111.322 72.2309 109.037 74.163C106.748 76.0991 80.9253 65.1631 78.0457 72.3375C75.1702 79.512 107.962 81.4441 107.482 83.4828C105.53 91.7443 80.1378 88.8852 72.832 90.1281Z" fill="#FF2048"/>
<path fill-rule="evenodd" clip-rule="evenodd" d="M66.2181 93.1675C66.2181 93.1675 65.5781 92.5276 66.0088 91.6702C66.4395 90.8088 68.7326 90.5217 68.7326 90.5217L65.4756 90.7637L63.6133 91.2354C63.6133 91.2354 63.761 92.9911 66.2181 93.1675Z" fill="#FF2048"/>
<path fill-rule="evenodd" clip-rule="evenodd" d="M76.9143 47.8768C76.9143 47.8768 76.0529 48.1599 76.057 49.1198C76.057 50.0837 77.9808 51.3677 77.9808 51.3677L75.1749 49.69L73.7188 48.4389C73.7188 48.4389 74.6335 46.9293 76.9143 47.8768Z" fill="#FF2048"/>
<path fill-rule="evenodd" clip-rule="evenodd" d="M100.668 82.9536C99.0318 82.5639 81.6842 80.4062 77.7996 76.8005C73.915 73.1907 76.6673 69.7532 79.5921 68.2929C82.5209 66.8285 79.7643 63.9201 77.9512 61.1225C76.134 58.3291 76.0151 51.089 75.1741 52.8282C74.3332 54.5675 71.0352 68.5309 69.3287 75.7669C67.6182 83.0029 66.9867 87.0516 68.3978 87.9212C72.4793 90.444 111.789 83.8191 100.668 82.9536Z" fill="#FF2048"/>
<path fill-rule="evenodd" clip-rule="evenodd" d="M68.8516 83.027C68.8803 84.27 69.5037 86.4071 72.5803 86.5958C75.6568 86.7886 85.2186 86.8337 85.3991 85.8575C85.5755 84.8771 76.7398 84.9427 74.5247 81.78C72.3137 78.6255 72.0018 77.2062 73.4293 72.0541C74.8609 66.906 75.7963 54.965 75.0128 56.0192C74.2252 57.0693 69.2454 79.085 68.8516 83.027Z" fill="#FF365A"/>
<path fill-rule="evenodd" clip-rule="evenodd" d="M53.1328 75.1965C53.1328 75.1965 53.941 73.5352 57.6575 74.0603C61.6693 74.6263 97.2463 84.2333 98.8502 85.9233C98.8502 85.9233 64.3642 84.2621 53.1328 75.1965Z" fill="#D00B2E"/>
<path fill-rule="evenodd" clip-rule="evenodd" d="M52.4922 119.178C52.4922 119.178 53.251 120.864 56.9798 120.45C61.008 119.995 96.8475 111.434 98.5048 109.797C98.5048 109.797 63.9861 110.445 52.4922 119.178Z" fill="#FF2048"/>
<path fill-rule="evenodd" clip-rule="evenodd" d="M52.886 92.1622L52.7424 102.212L52.4922 119.178C68.6706 112.75 81.67 111.819 98.5048 109.797L98.3818 97.8558L98.8535 85.9229C82.0884 83.4043 69.1177 82.0958 53.1361 75.1961L52.886 92.1622Z" fill="#FF2048"/>
<path fill-rule="evenodd" clip-rule="evenodd" d="M61.2549 116.114C73.6513 112.365 84.8087 111.442 98.5014 109.797L98.3784 97.8561L98.8501 85.9232C84.3986 83.7532 72.7693 82.4816 59.5977 77.7519C62.5306 80.4962 77.3678 84.6352 85.3011 86.3211C93.2345 88.0071 94.9818 90.3411 93.1687 92.7244C91.3515 95.1036 63.7776 89.9883 62.5142 97.614C61.2507 105.244 93.6896 100.063 93.6568 102.159C93.5338 110.642 68.1176 113.325 61.2549 116.114Z" fill="#FF2048"/>
<path fill-rule="evenodd" clip-rule="evenodd" d="M55.454 120.504C55.454 120.504 54.695 120.02 54.9288 119.088C55.1626 118.153 57.3407 117.382 57.3407 117.382L54.2151 118.321L52.4922 119.179C52.4922 119.179 53.0173 120.865 55.454 120.504Z" fill="#FF2048"/>
<path fill-rule="evenodd" clip-rule="evenodd" d="M56.1356 73.9737C56.1356 73.9737 55.3562 74.4372 55.5654 75.3766C55.7746 76.3119 57.9283 77.1528 57.9283 77.1528L54.8271 76.1191L53.1328 75.2125C53.1328 75.2125 53.7072 73.543 56.1356 73.9737Z" fill="#FF2048"/>
<path fill-rule="evenodd" clip-rule="evenodd" d="M86.8889 103.107C85.2112 103.082 67.8023 104.711 63.2367 102.024C58.667 99.3412 60.6073 95.3868 63.1506 93.3317C65.6938 91.2725 62.3792 89.0246 60.0041 86.6864C57.629 84.3483 55.9514 77.3091 55.5043 79.1838C55.0613 81.0625 54.848 95.4073 54.7414 102.844C54.6306 110.277 54.8848 114.367 56.4477 114.913C60.9763 116.496 97.9398 101.556 86.8889 103.107Z" fill="#FF2048"/>
<path fill-rule="evenodd" clip-rule="evenodd" d="M55.8384 110.035C56.1338 111.241 57.2084 113.198 60.2521 112.718C63.3 112.242 72.6486 110.228 72.6075 109.231C72.5706 108.238 63.9564 110.207 61.1096 107.598C58.271 104.989 57.6638 103.673 57.951 98.3359C58.234 92.9951 56.5768 81.1402 56.0353 82.3339C55.4939 83.5316 55.3749 106.101 55.8384 110.035Z" fill="#FF365A"/>
<path fill-rule="evenodd" clip-rule="evenodd" d="M38.8203 105.728C38.8203 105.728 39.2509 103.927 42.9879 103.64C47.0366 103.332 83.8401 105.063 85.7763 106.363C85.7763 106.363 51.7376 112.164 38.8203 105.728Z" fill="#D00B2E"/>
<path fill-rule="evenodd" clip-rule="evenodd" d="M47.6523 148.816C47.6523 148.816 48.7599 150.297 52.3082 149.091C56.1436 147.782 89.3044 131.71 90.572 129.753C90.572 129.753 56.9968 137.814 47.6523 148.816Z" fill="#FF2048"/>
<path fill-rule="evenodd" clip-rule="evenodd" d="M42.2291 122.345L44.2473 132.194L47.6519 148.815C62.0706 139.057 74.5654 135.353 90.5715 129.753L87.8848 118.116L85.7763 106.363C68.8595 107.512 55.9135 109.021 38.8203 105.728L42.2291 122.345Z" fill="#FF2048"/>
<path fill-rule="evenodd" clip-rule="evenodd" d="M55.5571 143.934C66.8542 137.609 77.5522 134.311 90.5721 129.753L87.8854 118.116L85.7769 106.363C71.1941 107.352 59.5608 108.611 45.6836 106.827L45.6876 106.831C49.1374 108.874 64.516 109.727 72.6299 109.67C80.7396 109.608 82.9507 111.507 81.6872 114.227C80.4279 116.943 52.3945 117.882 52.8047 125.598C53.2149 133.318 83.7751 121.283 84.1935 123.334C85.9 131.644 61.661 139.738 55.5571 143.934Z" fill="#FF2048"/>
<path fill-rule="evenodd" clip-rule="evenodd" d="M50.8314 149.472C50.8314 149.472 49.9823 149.164 50.011 148.2C50.0438 147.24 52.0046 146.014 52.0046 146.014L49.1495 147.606L47.6523 148.816C47.6523 148.816 48.5302 150.35 50.8314 149.472Z" fill="#FF2048"/>
<path fill-rule="evenodd" clip-rule="evenodd" d="M41.4945 103.886C41.4945 103.886 40.834 104.505 41.2401 105.375C41.6421 106.249 43.927 106.605 43.927 106.605L40.6783 106.265L38.8281 105.74C38.8281 105.74 39.0291 103.984 41.4945 103.886Z" fill="#FF2048"/>
<path fill-rule="evenodd" clip-rule="evenodd" d="M77.791 125.717C76.1461 126.054 59.4998 131.395 54.4584 129.754C49.417 128.113 50.4671 123.839 52.51 121.279C54.5487 118.723 50.8241 117.239 48.0019 115.471C45.1797 113.694 42.0253 107.176 41.9925 109.108C41.9596 111.04 44.8433 125.094 46.3365 132.379C47.8296 139.664 48.9576 143.602 50.6025 143.799C55.365 144.374 88.2471 121.829 77.791 125.717Z" fill="#FF2048"/>
<path fill-rule="evenodd" clip-rule="evenodd" d="M48.9583 139.164C49.508 140.284 50.9764 141.961 53.8437 140.833C56.7152 139.714 65.4115 135.739 65.1654 134.775C64.9111 133.811 56.9204 137.585 53.5813 135.653C50.2464 133.716 49.3685 132.56 48.4989 127.288C47.6333 122.009 43.4616 110.786 43.1908 112.074C42.9201 113.358 47.658 135.423 48.9583 139.164Z" fill="#FF365A"/>
<path fill-rule="evenodd" clip-rule="evenodd" d="M31.6016 137.014C31.6016 137.014 31.6591 135.164 35.2565 134.118C39.1535 132.986 75.5345 127.132 77.688 128.01C77.688 128.01 45.5649 140.661 31.6016 137.014Z" fill="#D00B2E"/>
<path fill-rule="evenodd" clip-rule="evenodd" d="M49.0859 177.378C49.0859 177.378 50.4723 178.596 53.6965 176.693C57.1833 174.626 86.3446 152.093 87.1814 149.919C87.1814 149.919 55.9733 164.691 49.0859 177.378Z" fill="#FF2048"/>
<path fill-rule="evenodd" clip-rule="evenodd" d="M38.3453 152.582L42.3408 161.807L49.0845 177.378C61.1937 164.871 72.6629 158.681 87.18 149.919L82.1632 139.086L77.6881 128.01C61.3701 132.605 49.0106 136.735 31.6016 137.014L38.3453 152.582Z" fill="#FF2048"/>
<path fill-rule="evenodd" clip-rule="evenodd" d="M55.8123 170.979C65.5752 162.471 75.3707 157.044 87.1805 149.919L82.1637 139.086L77.6885 128.01C63.6226 131.969 52.4979 135.587 38.5469 136.686C42.3495 137.982 57.5761 135.665 65.5054 133.942C73.4305 132.223 75.9779 133.63 75.301 136.542C74.6242 139.463 47.3825 146.121 49.3638 153.599C51.3451 161.068 78.7919 143.024 79.6246 144.943C82.9965 152.733 60.9276 165.618 55.8123 170.979Z" fill="#FF2048"/>
<path fill-rule="evenodd" clip-rule="evenodd" d="M52.3305 177.366C52.3305 177.366 51.4363 177.234 51.2682 176.291C51.1 175.343 52.7654 173.744 52.7654 173.744L50.3001 175.885L49.0859 177.378C49.0859 177.378 50.2549 178.699 52.3305 177.366Z" fill="#FF2048"/>
<path fill-rule="evenodd" clip-rule="evenodd" d="M33.8392 134.66C33.8392 134.66 33.3181 135.406 33.8965 136.177C34.4708 136.944 36.7804 136.825 36.7804 136.825L33.5316 137.158L31.6118 137.026C31.6118 137.026 31.4478 135.267 33.8392 134.66Z" fill="#FF2048"/>
<path fill-rule="evenodd" clip-rule="evenodd" d="M73.8443 148.59C72.306 149.255 57.1038 157.898 51.8326 157.324C46.5615 156.749 46.7134 152.352 48.1861 149.431C49.6587 146.506 45.7083 145.821 42.5866 144.665C39.4609 143.508 35.039 137.777 35.404 139.672C35.7691 141.568 41.4668 154.735 44.4243 161.557C47.3778 168.383 49.2854 172.005 50.9385 171.861C55.7174 171.443 83.279 142.642 73.8443 148.59Z" fill="#FF2048"/>
<path fill-rule="evenodd" clip-rule="evenodd" d="M48.3785 167.661C49.1456 168.645 50.9259 169.987 53.502 168.301C56.0822 166.611 63.7817 160.937 63.3387 160.043C62.8957 159.153 55.8484 164.486 52.1853 163.276C48.5222 162.065 47.4228 161.118 45.4948 156.13C43.5669 151.146 37.1799 141.014 37.1758 142.331C37.1758 143.643 46.3398 164.268 48.3785 167.661Z" fill="#FF365A"/>
<path fill-rule="evenodd" clip-rule="evenodd" d="M31.0924 170.713C31.0924 170.713 30.7479 168.895 34.0377 167.103C37.5983 165.158 71.8667 151.613 74.1638 152.011C74.1638 152.011 45.5151 171.275 31.0924 170.713Z" fill="#D00B2E"/>
<path fill-rule="evenodd" clip-rule="evenodd" d="M56.8438 206.372C56.8438 206.372 58.4641 207.27 61.2002 204.715C64.1618 201.942 87.7978 173.67 88.1465 171.369C88.1465 171.369 60.8473 192.503 56.8438 206.372Z" fill="#FF2048"/>
<path fill-rule="evenodd" clip-rule="evenodd" d="M41.029 184.467L46.9113 192.613L56.8423 206.372C65.9816 191.555 75.8512 183.043 88.145 171.369L80.9171 161.86L74.1652 152.011C59.2133 160.002 48.0352 166.697 31.0938 170.713L41.029 184.467Z" fill="#FF2048"/>
<path fill-rule="evenodd" clip-rule="evenodd" d="M62.0436 198.676C69.7472 188.269 78.1482 180.865 88.1448 171.369L80.917 161.86L74.165 152.011C61.2764 158.903 51.1897 164.826 37.8047 168.9H37.8087C41.7959 169.351 56.1654 163.809 63.5368 160.425C70.9123 157.041 73.7056 157.865 73.6687 160.855C73.6359 163.854 48.4616 176.218 52.0058 183.089C55.5459 189.964 78.4723 166.434 79.6988 168.132C84.6664 175.007 65.8831 192.343 62.0436 198.676Z" fill="#FF2048"/>
<path fill-rule="evenodd" clip-rule="evenodd" d="M60.0146 205.666C60.0146 205.666 59.1123 205.732 58.7431 204.846C58.3781 203.955 59.6619 202.032 59.6619 202.032L57.7134 204.657L56.8438 206.371C56.8438 206.371 58.2754 207.413 60.0146 205.666Z" fill="#FF2048"/>
<path fill-rule="evenodd" clip-rule="evenodd" d="M32.7702 167.94C32.7702 167.94 32.4215 168.776 33.1476 169.4C33.8778 170.032 36.1051 169.416 36.1051 169.416L33.004 170.438L31.1006 170.721C31.1006 170.721 30.5633 169.039 32.7702 167.94Z" fill="#FF2048"/>
<path fill-rule="evenodd" clip-rule="evenodd" d="M74.8341 172.936C73.4763 173.916 60.485 185.619 55.218 186.198C49.951 186.772 49.1469 182.444 49.9632 179.269C50.7713 176.102 46.7637 176.283 43.4657 175.828C40.1635 175.364 34.6095 170.721 35.3765 172.493C36.1395 174.269 44.5404 185.902 48.8927 191.924C53.2449 197.954 55.8907 201.084 57.4741 200.587C62.052 199.152 82.7715 165.093 74.8341 172.936Z" fill="#FF2048"/>
<path fill-rule="evenodd" clip-rule="evenodd" d="M54.0703 197.04C55.0302 197.831 57.0565 198.754 59.2101 196.556C61.3677 194.353 67.6645 187.154 67.041 186.378C66.4134 185.603 60.6827 192.33 56.8432 191.933C53.0078 191.543 51.728 190.85 48.7745 186.395C45.8169 181.944 37.4036 173.424 37.6826 174.704C37.9656 175.988 51.3424 194.16 54.0703 197.04Z" fill="#FF365A"/>
<path fill-rule="evenodd" clip-rule="evenodd" d="M37.2294 201.781C37.2294 201.781 36.5238 200.071 39.383 197.646C42.4759 195.025 73.3029 174.831 75.6287 174.753C75.6287 174.753 51.4717 199.418 37.2294 201.781Z" fill="#D00B2E"/>
<path fill-rule="evenodd" clip-rule="evenodd" d="M69.6602 231.497C69.6602 231.497 71.4241 232.05 73.5899 228.99C75.9322 225.68 93.3618 193.212 93.2347 190.886C93.2347 190.886 70.7759 217.102 69.6602 231.497Z" fill="#FF2048"/>
<path fill-rule="evenodd" clip-rule="evenodd" d="M49.7417 213.242L57.15 220.035L69.6612 231.497C75.6133 215.138 83.5591 204.805 93.2358 190.886L84.2359 183.035L75.6298 174.753C62.61 185.607 53.011 194.426 37.2305 201.781L49.7417 213.242Z" fill="#FF2048"/>
<path fill-rule="evenodd" clip-rule="evenodd" d="M73.2019 222.907C78.6413 211.158 85.3644 202.208 93.2363 190.886L84.2364 183.035L75.6303 174.753C64.4071 184.11 55.7231 191.949 43.4375 198.647H43.4415C47.4369 198.278 60.3952 189.947 66.9257 185.143C73.4603 180.336 76.3605 180.578 76.9389 183.519C77.509 186.456 55.3579 203.66 60.2188 209.674C65.0715 215.687 82.7677 188.007 84.3101 189.422C90.5657 195.156 75.6796 215.929 73.2019 222.907Z" fill="#FF2048"/>
<path fill-rule="evenodd" clip-rule="evenodd" d="M72.6219 230.163C72.6219 230.163 71.7523 230.409 71.2108 229.613C70.6694 228.822 71.5389 226.676 71.5389 226.676L70.1607 229.638L69.6602 231.496C69.6602 231.496 71.2723 232.226 72.6219 230.163Z" fill="#FF2048"/>
<path fill-rule="evenodd" clip-rule="evenodd" d="M38.3118 198.726C38.3118 198.726 38.1394 199.612 38.9804 200.083C39.8172 200.551 41.8764 199.497 41.8764 199.497L39.0461 201.129L37.2412 201.794C37.2412 201.794 36.3715 200.252 38.3118 198.726Z" fill="#FF2048"/>
<path fill-rule="evenodd" clip-rule="evenodd" d="M80.5186 195.111C79.3864 196.35 69.0329 210.437 63.9874 212.069C58.946 213.694 57.2845 209.616 57.4404 206.347C57.5921 203.082 53.7075 204.066 50.3808 204.284C47.0581 204.505 40.6794 201.08 41.7829 202.663C42.8945 204.243 53.4698 213.936 58.9542 218.957C64.4345 223.982 67.6587 226.509 69.1067 225.705C73.299 223.37 86.7044 185.829 80.5186 195.111Z" fill="#FF2048"/>
<path fill-rule="evenodd" clip-rule="evenodd" d="M65.0529 222.915C66.1563 223.502 68.3263 223.998 69.9917 221.405C71.6572 218.809 76.3705 210.49 75.6034 209.858C74.8322 209.222 70.5785 216.967 66.7389 217.361C62.9035 217.746 61.5129 217.328 57.7145 213.566C53.916 209.801 43.9562 203.159 44.4936 204.357C45.0227 205.559 61.804 220.646 65.0529 222.915Z" fill="#FF365A"/>
<path fill-rule="evenodd" clip-rule="evenodd" d="M50.6811 233.039C50.6811 233.039 49.6228 231.525 51.883 228.535C54.3361 225.306 80.0436 198.901 82.2956 198.319C82.2956 198.319 64.066 227.636 50.6811 233.039Z" fill="#D00B2E"/>
<path fill-rule="evenodd" clip-rule="evenodd" d="M88.7858 255.001C88.7858 255.001 90.636 255.157 92.0799 251.707C93.651 247.966 103.615 212.488 102.983 210.244C102.983 210.244 86.7512 240.714 88.7858 255.001Z" fill="#FF2048"/>
<path fill-rule="evenodd" clip-rule="evenodd" d="M65.3773 241.509L74.086 246.53L88.7836 255.001C91.0438 237.74 96.561 225.93 102.981 210.244L92.4919 204.538L82.2943 198.319C71.9366 211.741 64.4872 222.435 50.6797 233.039L65.3773 241.509Z" fill="#FF2048"/>
<path fill-rule="evenodd" clip-rule="evenodd" d="M90.3761 245.854C93.1368 233.203 97.7598 223.01 102.982 210.244L92.4929 204.538L82.2952 198.32C73.3692 209.887 66.5967 219.433 56.0586 228.638C59.8817 227.407 70.7193 216.463 76.0561 210.351C81.3887 204.239 84.2765 203.849 85.4743 206.593C86.6721 209.342 68.7789 230.939 74.8294 235.755C80.88 240.571 92.1401 209.707 93.9532 210.753C101.304 214.99 91.2827 238.503 90.3761 245.854Z" fill="#FF2048"/>
<path fill-rule="evenodd" clip-rule="evenodd" d="M91.39 253.061C91.39 253.061 90.5942 253.492 89.8928 252.831C89.1954 252.171 89.5769 249.89 89.5769 249.89L88.8755 253.086L88.7852 255.001C88.7852 255.001 90.5163 255.366 91.39 253.061Z" fill="#FF2048"/>
<path fill-rule="evenodd" clip-rule="evenodd" d="M51.0719 229.823C51.0719 229.823 51.1005 230.725 52.0235 231C52.9423 231.275 54.7226 229.802 54.7226 229.802L52.3147 232.009L50.6945 233.047C50.6945 233.047 49.5131 231.734 51.0719 229.823Z" fill="#FF2048"/>
<path fill-rule="evenodd" clip-rule="evenodd" d="M91.4889 217.132C90.648 218.58 83.6049 234.586 79.0312 237.273C74.4656 239.955 71.9591 236.337 71.3971 233.109C70.8392 229.889 67.2582 231.694 64.0627 232.629C60.8631 233.568 53.8979 231.604 55.3172 232.912C56.7448 234.212 69.1739 241.379 75.6141 245.091C82.0584 248.808 85.7503 250.571 86.9891 249.472C90.5784 246.285 95.5089 206.729 91.4889 217.132Z" fill="#FF2048"/>
<path fill-rule="evenodd" clip-rule="evenodd" d="M82.432 247.634C83.6339 247.962 85.8612 247.974 86.9236 245.078C87.986 242.186 90.7796 233.043 89.8936 232.592C89.0034 232.136 86.5297 240.623 82.8666 241.838C79.2076 243.052 77.7596 242.941 73.235 240.094C68.7146 237.243 57.5448 232.924 58.3283 233.978C59.1117 235.032 78.7688 246.12 82.432 247.634Z" fill="#FF365A"/>
<path fill-rule="evenodd" clip-rule="evenodd" d="M70.4072 260.424C70.4072 260.424 69.0452 259.169 70.6163 255.768C72.3145 252.081 91.7255 220.766 93.8053 219.712C93.8053 219.712 82.3154 252.265 70.4072 260.424Z" fill="#D00B2E"/>
<path fill-rule="evenodd" clip-rule="evenodd" d="M112.354 273.666C112.354 273.666 114.187 273.424 114.856 269.735C115.582 265.749 117.666 228.953 116.575 226.898C116.575 226.898 107.283 260.149 112.354 273.666Z" fill="#FF2048"/>
<path fill-rule="evenodd" clip-rule="evenodd" d="M86.5847 265.531L96.1712 268.558L112.354 273.666C110.836 256.327 113.683 243.606 116.575 226.898L105.101 223.584L93.8043 219.711C86.5806 235.049 81.6007 247.097 70.4062 260.424L86.5847 265.531Z" fill="#FF2048"/>
<path fill-rule="evenodd" clip-rule="evenodd" d="M111.933 264.387C111.9 251.441 114.222 240.488 116.576 226.898L105.103 223.584L93.8061 219.711C87.5751 232.932 83.0217 243.704 74.7109 254.968H74.7151C78.1814 252.942 86.406 239.922 90.3029 232.801C94.1957 225.688 96.9277 224.683 98.6875 227.107C100.447 229.528 87.6324 254.472 94.5772 257.876C101.518 261.277 105.866 228.711 107.868 229.343C115.957 231.903 111.236 257.016 111.933 264.387Z" fill="#FF2048"/>
<path fill-rule="evenodd" clip-rule="evenodd" d="M114.473 271.208C114.473 271.208 113.792 271.799 112.967 271.307C112.143 270.816 112.02 268.505 112.02 268.505L112.024 271.77L112.356 273.666C112.356 273.666 114.12 273.648 114.473 271.208Z" fill="#FF2048"/>
<path fill-rule="evenodd" clip-rule="evenodd" d="M70.0997 257.2C70.0997 257.2 70.3169 258.073 71.2768 258.147C72.2326 258.218 73.6561 256.393 73.6561 256.393L71.7815 259.067L70.4237 260.429C70.4237 260.429 68.9839 259.404 70.0997 257.2Z" fill="#FF2048"/>
<path fill-rule="evenodd" clip-rule="evenodd" d="M106.836 236.103C106.331 237.699 102.893 254.841 99.0088 258.452C95.1242 262.057 91.896 259.062 90.6531 256.031C89.4184 253.004 86.3088 255.539 83.3882 257.143C80.4634 258.742 73.2358 258.331 74.9135 259.296C76.583 260.269 90.2632 264.584 97.3516 266.824C104.444 269.062 108.431 269.994 109.408 268.652C112.222 264.768 108.521 225.073 106.836 236.103Z" fill="#FF2048"/>
<path fill-rule="evenodd" clip-rule="evenodd" d="M104.553 267.832C105.8 267.898 107.978 267.435 108.393 264.382C108.807 261.323 109.566 251.789 108.598 251.543C107.638 251.289 107.051 260.108 103.737 262.086C100.422 264.055 98.9865 264.263 93.9533 262.459C88.9242 260.645 77.0856 258.833 78.0783 259.694C79.0669 260.555 100.652 267.151 104.553 267.832Z" fill="#FF365A"/>
<path fill-rule="evenodd" clip-rule="evenodd" d="M95.9677 283.203C95.9677 283.203 94.3679 282.28 95.1555 278.613C96.0087 274.647 108.11 239.844 109.91 238.363C109.91 238.363 105.813 272.644 95.9677 283.203Z" fill="#D00B2E"/>
<path fill-rule="evenodd" clip-rule="evenodd" d="M139.793 286.961C139.793 286.961 141.532 286.325 141.38 282.58C141.216 278.531 135.215 242.166 133.701 240.402C133.701 240.402 131.896 274.879 139.793 286.961Z" fill="#FF2048"/>
<path fill-rule="evenodd" clip-rule="evenodd" d="M112.873 284.655L122.894 285.513L139.795 286.961C134.532 270.367 134.528 257.34 133.703 240.402L121.779 239.676L109.911 238.364C106.211 254.907 103.984 267.75 95.9688 283.203L112.873 284.655Z" fill="#FF2048"/>
<path fill-rule="evenodd" clip-rule="evenodd" d="M137.359 278.002C134.504 265.375 134.373 254.177 133.704 240.402L121.78 239.676L109.912 238.364C106.721 252.622 104.629 264.132 98.9805 276.935C101.926 274.203 107.102 259.702 109.35 251.904C111.598 244.11 114.043 242.531 116.287 244.512C118.539 246.49 111.479 273.632 118.998 275.438C126.517 277.234 123.646 244.512 125.734 244.693C134.192 245.415 135.07 270.958 137.359 278.002Z" fill="#FF2048"/>
<path fill-rule="evenodd" clip-rule="evenodd" d="M141.326 284.098C141.326 284.098 140.789 284.827 139.874 284.529C138.963 284.224 138.34 281.997 138.34 281.997L139.058 285.189L139.792 286.961C139.792 286.961 141.515 286.562 141.326 284.098Z" fill="#FF2048"/>
<path fill-rule="evenodd" clip-rule="evenodd" d="M94.9623 280.119C94.9623 280.119 95.3685 280.929 96.3201 280.79C97.2718 280.648 98.2604 278.56 98.2604 278.56L97.0093 281.578L95.9838 283.203C95.9838 283.203 94.3593 282.514 94.9623 280.119Z" fill="#FF2048"/>
<path fill-rule="evenodd" clip-rule="evenodd" d="M126.201 251.511C126.058 253.18 126.451 270.663 123.453 275.028C120.446 279.401 116.639 277.182 114.769 274.495C112.898 271.812 110.421 274.966 107.918 277.169C105.416 279.372 98.2745 280.545 100.116 281.124C101.958 281.697 116.258 282.928 123.662 283.559C131.07 284.2 135.168 284.232 135.825 282.71C137.724 278.31 125.438 240.382 126.201 251.511Z" fill="#FF2048"/>
<path fill-rule="evenodd" clip-rule="evenodd" d="M130.912 282.977C132.139 282.765 134.165 281.833 133.898 278.765C133.64 275.692 132.299 266.225 131.302 266.191C130.305 266.159 131.659 274.892 128.857 277.542C126.051 280.193 124.693 280.709 119.389 280.045C114.086 279.38 102.14 280.193 103.297 280.816C104.45 281.442 126.954 283.162 130.912 282.977Z" fill="#FF365A"/>
<path fill-rule="evenodd" clip-rule="evenodd" d="M125.632 299.743C125.632 299.743 123.869 299.184 123.844 295.436C123.815 291.382 128.089 254.78 129.521 252.942C129.521 252.942 132.95 287.297 125.632 299.743Z" fill="#D00B2E"/>
<path fill-rule="evenodd" clip-rule="evenodd" d="M169.234 293.913C169.234 293.913 170.789 292.917 169.829 289.291C168.787 285.373 155.058 251.178 153.191 249.779C153.191 249.779 158.905 283.829 169.234 293.913Z" fill="#FF2048"/>
<path fill-rule="evenodd" clip-rule="evenodd" d="M142.447 297.495L152.415 296.162L169.233 293.913C160.496 278.855 157.666 266.13 153.19 249.779L141.397 251.654L129.522 252.942C129.497 269.896 130.108 282.915 125.633 299.743L142.447 297.495Z" fill="#FF2048"/>
<path fill-rule="evenodd" clip-rule="evenodd" d="M164.909 285.693C159.379 273.982 156.828 263.082 153.189 249.779L141.396 251.654L129.52 252.942C129.5 267.558 129.951 279.248 127.211 292.97C129.492 289.667 131.407 274.384 131.908 266.282C132.412 258.189 134.459 256.121 137.084 257.565C139.706 259.009 138.697 287.038 146.429 287.166C154.157 287.293 144.267 255.973 146.343 255.69C154.752 254.571 161.143 279.31 164.909 285.693Z" fill="#FF2048"/>
<path fill-rule="evenodd" clip-rule="evenodd" d="M170.106 290.787C170.106 290.787 169.741 291.612 168.781 291.518C167.825 291.418 166.738 289.38 166.738 289.38L168.129 292.338L169.232 293.913C169.232 293.913 170.82 293.146 170.106 290.787Z" fill="#FF2048"/>
<path fill-rule="evenodd" clip-rule="evenodd" d="M123.979 296.948C123.979 296.948 124.553 297.655 125.451 297.311C126.35 296.966 126.862 294.708 126.862 294.708L126.296 297.926L125.648 299.738C125.648 299.738 123.909 299.418 123.979 296.948Z" fill="#FF2048"/>
<path fill-rule="evenodd" clip-rule="evenodd" d="M148.275 262.249C148.501 263.911 152.672 280.892 150.683 285.807C148.702 290.718 144.505 289.375 142.097 287.166C139.69 284.95 137.954 288.564 135.985 291.255C134.024 293.95 127.305 296.646 129.229 296.809C131.153 296.974 145.371 295.074 152.742 294.09C160.113 293.101 164.121 292.252 164.433 290.627C165.331 285.914 145.121 251.551 148.275 262.249Z" fill="#FF2048"/>
<path fill-rule="evenodd" clip-rule="evenodd" d="M159.699 291.945C160.851 291.477 162.623 290.127 161.705 287.185C160.782 284.245 157.422 275.294 156.442 275.479C155.461 275.663 158.677 283.893 156.511 287.088C154.354 290.283 153.135 291.079 147.815 291.576C142.495 292.076 131.005 295.465 132.268 295.826C133.536 296.178 155.875 292.986 159.699 291.945Z" fill="#FF365A"/>
<path fill-rule="evenodd" clip-rule="evenodd" d="M158.096 309.438C158.096 309.438 156.254 309.28 155.417 305.625C154.514 301.67 150.773 265.01 151.774 262.909C151.774 262.909 162.55 295.709 158.096 309.438Z" fill="#D00B2E"/>
<path fill-rule="evenodd" clip-rule="evenodd" d="M199.398 294.327C199.398 294.327 200.707 293.014 198.984 289.683C197.126 286.083 176.32 255.666 174.199 254.706C174.199 254.706 187.137 286.714 199.398 294.327Z" fill="#FF2048"/>
<path fill-rule="evenodd" clip-rule="evenodd" d="M174.031 303.611L183.47 300.156L199.402 294.327C187.621 281.513 182.104 269.703 174.203 254.706L163.091 259.083L151.777 262.909C155.42 279.466 158.829 292.047 158.099 309.438L174.031 303.611Z" fill="#FF2048"/>
<path fill-rule="evenodd" clip-rule="evenodd" d="M193.409 287.235C185.484 277.001 180.631 266.906 174.203 254.706L163.091 259.083L151.777 262.909C154.915 277.185 157.881 288.499 158.172 302.491C159.69 298.766 158.254 283.433 156.991 275.421C155.736 267.406 157.286 264.942 160.162 265.786C163.033 266.63 168.107 294.213 175.684 292.67C183.26 291.124 166.828 262.676 168.793 261.958C176.767 259.042 188.355 281.816 193.409 287.235Z" fill="#FF2048"/>
<path fill-rule="evenodd" clip-rule="evenodd" d="M199.582 291.082C199.582 291.082 199.401 291.973 198.45 292.084C197.49 292.199 195.988 290.443 195.988 290.443L197.986 293.027L199.401 294.327C199.401 294.327 200.792 293.236 199.582 291.082Z" fill="#FF2048"/>
<path fill-rule="evenodd" clip-rule="evenodd" d="M155.883 307.072C155.883 307.072 156.593 307.635 157.392 307.106C158.192 306.577 158.209 304.263 158.209 304.263L158.352 307.527L158.11 309.435C158.11 309.435 156.342 309.497 155.883 307.072Z" fill="#FF2048"/>
<path fill-rule="evenodd" clip-rule="evenodd" d="M172.102 267.942C172.676 269.514 180.417 285.196 179.543 290.419C178.669 295.649 174.284 295.246 171.454 293.605C168.619 291.96 167.708 295.865 166.371 298.918C165.034 301.973 159.057 306.054 160.973 305.801C162.888 305.547 176.36 300.616 183.341 298.06C190.327 295.504 194.056 293.806 194.007 292.154C193.867 287.358 166.707 258.176 172.102 267.942Z" fill="#FF2048"/>
<path fill-rule="evenodd" clip-rule="evenodd" d="M189.667 294.466C190.688 293.758 192.132 292.063 190.598 289.388C189.064 286.719 183.842 278.699 182.927 279.089C182.012 279.483 186.927 286.825 185.507 290.411C184.088 294 183.075 295.037 177.988 296.678C172.898 298.315 162.417 304.103 163.725 304.182C165.034 304.258 186.16 296.309 189.667 294.466Z" fill="#FF365A"/>
<path fill-rule="evenodd" clip-rule="evenodd" d="M193.021 311.847C193.021 311.847 191.187 312.101 189.559 308.725C187.795 305.075 175.96 270.179 176.469 267.902C176.469 267.902 194.296 297.474 193.021 311.847Z" fill="#D00B2E"/>
<path fill-rule="evenodd" clip-rule="evenodd" d="M229.911 287.895C229.911 287.895 230.888 286.32 228.467 283.461C225.846 280.364 198.781 255.358 196.496 254.899C196.496 254.899 216.26 283.211 229.911 287.895Z" fill="#FF2048"/>
<path fill-rule="evenodd" clip-rule="evenodd" d="M207.246 302.61L215.68 297.133L229.91 287.895C215.561 278.034 207.554 267.755 196.495 254.899L186.646 261.647L176.469 267.902C183.717 283.232 189.849 294.729 193.02 311.847L207.246 302.61Z" fill="#FF2048"/>
<path fill-rule="evenodd" clip-rule="evenodd" d="M222.481 282.32C212.468 274.113 205.491 265.359 196.495 254.899L186.646 261.647L176.469 267.902C182.716 281.119 188.135 291.484 191.54 305.058C192.184 301.092 187.368 286.464 184.349 278.933C181.33 271.402 182.294 268.657 185.284 268.833C188.27 269.017 199.375 294.774 206.414 291.571C213.457 288.375 191.088 264.316 192.848 263.177C199.965 258.557 216.345 278.17 222.481 282.32Z" fill="#FF2048"/>
<path fill-rule="evenodd" clip-rule="evenodd" d="M229.362 284.697C229.362 284.697 229.386 285.599 228.48 285.917C227.573 286.246 225.715 284.868 225.715 284.868L228.238 286.943L229.911 287.895C229.911 287.895 231.019 286.517 229.362 284.697Z" fill="#FF2048"/>
<path fill-rule="evenodd" clip-rule="evenodd" d="M190.332 310.035C190.332 310.035 191.148 310.424 191.817 309.731C192.481 309.034 191.977 306.773 191.977 306.773L192.847 309.928L193.031 311.839C193.031 311.839 191.325 312.294 190.332 310.035Z" fill="#FF2048"/>
<path fill-rule="evenodd" clip-rule="evenodd" d="M197.406 268.271C198.321 269.678 209.368 283.228 209.68 288.518C209.991 293.811 205.631 294.397 202.505 293.43C199.375 292.462 199.359 296.473 198.74 299.746C198.12 303.02 193.202 308.332 195.011 307.658C196.82 306.982 208.855 299.173 215.086 295.123C221.325 291.071 224.582 288.584 224.164 286.98C222.954 282.338 189.965 259.956 197.406 268.271Z" fill="#FF2048"/>
<path fill-rule="evenodd" clip-rule="evenodd" d="M220.453 290.201C221.289 289.286 222.315 287.306 220.223 285.049C218.131 282.786 211.256 276.136 210.452 276.722C209.64 277.309 216.076 283.367 215.493 287.182C214.907 290.993 214.152 292.236 209.562 294.968C204.967 297.703 196.041 305.683 197.334 305.465C198.63 305.247 217.446 292.781 220.453 290.201Z" fill="#FF365A"/>
<path fill-rule="evenodd" clip-rule="evenodd" d="M228.223 306.227C228.223 306.227 226.496 306.892 224.137 303.976C221.59 300.816 202.138 269.519 202.113 267.192C202.113 267.192 226.192 291.931 228.223 306.227Z" fill="#D00B2E"/>
<path fill-rule="evenodd" clip-rule="evenodd" d="M258.696 274.515C258.696 274.515 259.295 272.759 256.284 270.527C253.031 268.107 220.99 249.907 218.664 249.976C218.664 249.976 244.339 273.059 258.696 274.515Z" fill="#FF2048"/>
<path fill-rule="evenodd" clip-rule="evenodd" d="M239.975 293.99L246.945 286.748L258.697 274.515C242.486 268.173 232.349 259.982 218.665 249.976L210.605 258.788L202.113 267.193C212.66 280.471 221.241 290.279 228.223 306.228L239.975 293.99Z" fill="#FF2048"/>
<path fill-rule="evenodd" clip-rule="evenodd" d="M250.202 270.774C238.58 265.055 229.794 258.115 218.665 249.976L210.605 258.788L202.113 267.193C211.199 278.636 218.837 287.505 225.237 299.948V299.943C224.966 295.94 216.946 282.793 212.294 276.143C207.647 269.498 207.959 266.606 210.912 266.096C213.866 265.593 230.528 288.15 236.657 283.437C242.785 278.728 215.539 260.379 216.987 258.87C222.87 252.749 243.281 268.128 250.202 270.774Z" fill="#FF2048"/>
<path fill-rule="evenodd" clip-rule="evenodd" d="M257.437 271.521C257.437 271.521 257.663 272.399 256.855 272.919C256.051 273.44 253.926 272.52 253.926 272.52L256.855 273.966L258.696 274.515C258.696 274.515 259.468 272.923 257.437 271.521Z" fill="#FF2048"/>
<path fill-rule="evenodd" clip-rule="evenodd" d="M225.191 305.071C225.191 305.071 226.073 305.263 226.561 304.435C227.05 303.611 226.049 301.526 226.049 301.526L227.612 304.394L228.235 306.215C228.235 306.215 226.672 307.048 225.191 305.071Z" fill="#FF2048"/>
<path fill-rule="evenodd" clip-rule="evenodd" d="M222.585 262.791C223.795 263.953 237.635 274.637 239.141 279.72C240.65 284.803 236.532 286.365 233.267 286.133C230.006 285.902 230.896 289.811 231.035 293.138C231.175 296.473 227.598 302.762 229.206 301.691C230.814 300.624 240.757 290.283 245.909 284.918C251.061 279.56 253.666 276.398 252.895 274.934C250.663 270.684 213.45 256.388 222.585 262.791Z" fill="#FF2048"/>
<path fill-rule="evenodd" clip-rule="evenodd" d="M250.011 278.912C250.622 277.829 251.167 275.668 248.616 273.945C246.065 272.213 237.856 267.303 237.204 268.058C236.556 268.813 244.194 273.251 244.493 277.095C244.793 280.942 244.337 282.325 240.486 286.03C236.634 289.733 229.759 299.538 230.969 299.028C232.179 298.524 247.668 282.107 250.011 278.912Z" fill="#FF365A"/>
<path fill-rule="evenodd" clip-rule="evenodd" d="M260.121 293.348C260.121 293.348 258.582 294.376 255.645 292.047C252.466 289.525 226.619 263.264 226.086 260.994C226.086 260.994 255.01 279.851 260.121 293.348Z" fill="#D00B2E"/>
<path fill-rule="evenodd" clip-rule="evenodd" d="M282.899 255.719C282.899 255.719 283.096 253.881 279.67 252.36C275.962 250.711 240.709 239.988 238.453 240.57C238.453 240.57 268.57 257.45 282.899 255.719Z" fill="#FF2048"/>
<path fill-rule="evenodd" clip-rule="evenodd" d="M268.907 278.834L274.113 270.232L282.899 255.719C265.687 253.094 254 247.326 238.454 240.57L232.518 250.932L226.086 260.995C239.286 271.639 249.812 279.318 260.121 293.348L268.907 278.834Z" fill="#FF2048"/>
<path fill-rule="evenodd" clip-rule="evenodd" d="M273.785 253.939C261.195 250.908 251.1 246.067 238.454 240.571L232.518 250.932L226.086 260.995C237.465 270.172 246.855 277.145 255.834 287.879V287.876C254.689 284.032 243.975 272.959 237.982 267.496C231.989 262.028 231.657 259.136 234.425 258C237.194 256.859 258.406 275.208 263.353 269.265C268.296 263.32 237.682 251.4 238.769 249.611C243.163 242.347 266.45 252.873 273.785 253.939Z" fill="#FF2048"/>
<path fill-rule="evenodd" clip-rule="evenodd" d="M281.008 253.078C281.008 253.078 281.423 253.882 280.75 254.567C280.073 255.252 277.805 254.821 277.805 254.821L280.98 255.592L282.899 255.719C282.899 255.719 283.297 253.996 281.008 253.078Z" fill="#FF2048"/>
<path fill-rule="evenodd" clip-rule="evenodd" d="M256.91 292.888C256.91 292.888 257.813 292.883 258.112 291.965C258.403 291.05 256.968 289.236 256.968 289.236L259.121 291.697L260.126 293.335C260.126 293.335 258.789 294.487 256.91 292.888Z" fill="#FF2048"/>
<path fill-rule="evenodd" clip-rule="evenodd" d="M245.087 252.212C246.523 253.082 262.369 260.466 264.957 265.092C267.542 269.719 263.866 272.147 260.634 272.636C257.397 273.128 259.128 276.743 259.994 279.962C260.864 283.182 258.751 290.106 260.084 288.707C261.417 287.314 268.85 275.039 272.698 268.678C276.55 262.32 278.396 258.66 277.321 257.397C274.212 253.746 234.77 247.966 245.087 252.212Z" fill="#FF2048"/>
<path fill-rule="evenodd" clip-rule="evenodd" d="M275.385 261.917C275.742 260.727 275.804 258.499 272.932 257.376C270.065 256.248 260.979 253.262 260.507 254.136C260.036 255.014 268.47 257.671 269.602 261.355C270.742 265.044 270.603 266.487 267.653 270.95C264.708 275.409 260.151 286.485 261.221 285.726C262.292 284.963 273.798 265.552 275.385 261.917Z" fill="#FF365A"/>
<path fill-rule="evenodd" clip-rule="evenodd" d="M287.986 274.154C287.986 274.154 286.702 275.491 283.335 273.85C279.688 272.073 248.779 252.011 247.766 249.911C247.766 249.911 280.082 262.078 287.986 274.154Z" fill="#D00B2E"/>
<path fill-rule="evenodd" clip-rule="evenodd" d="M302.099 232.493C302.099 232.493 301.898 230.656 298.222 229.909C294.247 229.101 257.509 226.246 255.43 227.296C255.43 227.296 288.484 237.281 302.099 232.493Z" fill="#FF2048"/>
<path fill-rule="evenodd" clip-rule="evenodd" d="M293.43 258.082L296.654 248.565L302.097 232.493C284.729 233.642 272.07 230.541 255.428 227.296L251.876 238.7L247.766 249.911C262.951 257.455 274.893 262.68 287.986 274.153L293.43 258.082Z" fill="#FF2048"/>
<path fill-rule="evenodd" clip-rule="evenodd" d="M292.818 232.723C279.868 232.481 268.969 229.934 255.428 227.296L251.876 238.7L247.766 249.911C260.859 256.412 271.533 261.195 282.617 269.735C280.668 266.228 267.821 257.729 260.786 253.689C253.751 249.652 252.807 246.896 255.264 245.185C257.725 243.474 282.399 256.811 285.939 249.939C289.483 243.068 257.02 238.043 257.693 236.058C260.416 228.018 285.427 233.269 292.818 232.723Z" fill="#FF2048"/>
<path fill-rule="evenodd" clip-rule="evenodd" d="M299.686 230.323C299.686 230.323 300.264 231.021 299.756 231.833C299.243 232.649 296.938 232.719 296.938 232.719L300.199 232.78L302.098 232.493C302.098 232.493 302.118 230.725 299.686 230.323Z" fill="#FF2048"/>
<path fill-rule="evenodd" clip-rule="evenodd" d="M284.758 274.395C284.758 274.395 285.639 274.195 285.73 273.238C285.82 272.278 284.027 270.823 284.027 270.823L286.661 272.754L287.994 274.137C287.994 274.137 286.936 275.552 284.758 274.395Z" fill="#FF2048"/>
<path fill-rule="evenodd" clip-rule="evenodd" d="M264.429 237.231C266.013 237.768 283.09 241.563 286.609 245.521C290.133 249.48 287.073 252.642 284.021 253.82C280.965 254.997 283.438 258.155 284.981 261.113C286.519 264.063 285.957 271.282 286.954 269.633C287.959 267.981 292.561 254.394 294.944 247.347C297.332 240.304 298.345 236.341 297.024 235.336C293.201 232.44 253.44 235.315 264.429 237.231Z" fill="#FF2048"/>
<path fill-rule="evenodd" clip-rule="evenodd" d="M296.107 240.168C296.198 238.925 295.779 236.739 292.735 236.259C289.692 235.783 280.175 234.823 279.904 235.783C279.638 236.743 288.441 237.514 290.344 240.87C292.247 244.221 292.424 245.665 290.512 250.657C288.597 255.649 286.537 267.447 287.419 266.47C288.301 265.499 295.344 244.053 296.107 240.168Z" fill="#FF365A"/>
<path fill-rule="evenodd" clip-rule="evenodd" d="M310.885 249.624C310.885 249.624 309.921 251.203 306.274 250.321C302.332 249.365 267.846 236.386 266.406 234.557C266.406 234.557 300.576 239.52 310.885 249.624Z" fill="#D00B2E"/>
<path fill-rule="evenodd" clip-rule="evenodd" d="M315.748 205.908C315.748 205.908 315.158 204.156 311.408 204.214C307.355 204.271 270.855 209.35 269.055 210.826C269.055 210.826 303.475 213.493 315.748 205.908Z" fill="#FF2048"/>
<path fill-rule="evenodd" clip-rule="evenodd" d="M312.759 232.76L313.871 222.767L315.746 205.908C299.026 210.748 286.002 210.424 269.052 210.826L268.022 222.722L266.406 234.557C282.855 238.671 295.637 241.218 310.885 249.624L312.759 232.76Z" fill="#FF2048"/>
<path fill-rule="evenodd" clip-rule="evenodd" d="M306.729 208.119C294.033 210.654 282.839 210.503 269.052 210.827L268.022 222.723L266.406 234.557C280.587 238.101 292.04 240.484 304.695 246.457C302.041 243.446 287.671 237.896 279.935 235.459C272.194 233.015 270.681 230.533 272.715 228.33C274.754 226.136 301.712 233.876 303.702 226.41C305.691 218.936 272.904 220.975 273.138 218.895C274.073 210.462 299.629 210.228 306.729 208.119Z" fill="#FF2048"/>
<path fill-rule="evenodd" clip-rule="evenodd" d="M312.928 204.3C312.928 204.3 313.642 204.858 313.318 205.76C312.994 206.667 310.75 207.233 310.75 207.233L313.954 206.597L315.746 205.908C315.746 205.908 315.394 204.177 312.928 204.3Z" fill="#FF2048"/>
<path fill-rule="evenodd" clip-rule="evenodd" d="M307.782 250.55C307.782 250.55 308.598 250.165 308.483 249.209C308.368 248.257 306.301 247.216 306.301 247.216L309.287 248.54L310.887 249.607C310.887 249.607 310.157 251.215 307.782 250.55Z" fill="#FF2048"/>
<path fill-rule="evenodd" clip-rule="evenodd" d="M279.967 218.6C281.628 218.784 299.115 218.834 303.406 221.947C307.697 225.061 305.383 228.806 302.651 230.611C299.924 232.416 303.012 234.971 305.149 237.527C307.291 240.082 308.283 247.253 308.911 245.423C309.53 243.598 311.122 229.339 311.942 221.951C312.763 214.559 312.902 210.465 311.401 209.772C307.041 207.762 268.818 219.084 279.967 218.6Z" fill="#FF2048"/>
<path fill-rule="evenodd" clip-rule="evenodd" d="M311.539 214.682C311.363 213.452 310.481 211.405 307.404 211.589C304.328 211.774 294.831 212.877 294.77 213.874C294.716 214.867 303.478 213.735 306.059 216.602C308.635 219.473 309.115 220.844 308.319 226.127C307.519 231.41 308.032 243.376 308.684 242.24C309.34 241.099 311.629 218.645 311.539 214.682Z" fill="#FF365A"/>
<path fill-rule="evenodd" clip-rule="evenodd" d="M328.181 220.355C328.181 220.355 327.578 222.107 323.833 222.037C319.776 221.963 283.293 216.774 281.496 215.297C281.496 215.297 315.925 212.73 328.181 220.355Z" fill="#D00B2E"/>
<path fill-rule="evenodd" clip-rule="evenodd" d="M323.445 176.627C323.445 176.627 322.485 175.044 318.839 175.913C314.892 176.853 280.366 189.725 278.926 191.559C278.926 191.559 313.108 186.698 323.445 176.627Z" fill="#FF2048"/>
<path fill-rule="evenodd" clip-rule="evenodd" d="M326.349 203.488L325.271 193.491L323.445 176.628C308.173 184.979 295.387 187.49 278.926 191.559L280.501 203.394L281.494 215.298C298.443 215.745 311.475 215.462 328.179 220.355L326.349 203.488Z" fill="#FF2048"/>
<path fill-rule="evenodd" clip-rule="evenodd" d="M315.118 180.738C303.271 185.968 292.315 188.249 278.926 191.56L280.501 203.394L281.494 215.298C296.101 215.68 307.8 215.524 321.447 218.608C318.203 216.246 302.972 213.948 294.895 213.243C286.81 212.537 284.792 210.437 286.305 207.849C287.815 205.264 315.807 206.975 316.127 199.255C316.451 191.527 284.89 200.629 284.664 198.549C283.754 190.111 308.645 184.344 315.118 180.738Z" fill="#FF2048"/>
<path fill-rule="evenodd" clip-rule="evenodd" d="M320.345 175.672C320.345 175.672 321.161 176.057 321.042 177.013C320.919 177.965 318.852 179.002 318.852 179.002L321.842 177.69L323.446 176.627C323.446 176.627 322.72 175.011 320.345 175.672Z" fill="#FF2048"/>
<path fill-rule="evenodd" clip-rule="evenodd" d="M325.345 221.939C325.345 221.939 326.063 221.381 325.743 220.475C325.424 219.572 323.18 219.002 323.18 219.002L326.383 219.646L328.176 220.339C328.176 220.339 327.811 222.07 325.345 221.939Z" fill="#FF2048"/>
<path fill-rule="evenodd" clip-rule="evenodd" d="M291.271 196.777C292.937 196.6 310.017 192.855 314.878 194.964C319.739 197.068 318.295 201.228 316.023 203.578C313.746 205.933 317.315 207.762 319.961 209.793C322.598 211.823 325.129 218.604 325.339 216.688C325.552 214.768 324.009 200.501 323.21 193.11C322.414 185.722 321.659 181.69 320.039 181.341C315.354 180.324 280.495 199.665 291.271 196.777Z" fill="#FF2048"/>
<path fill-rule="evenodd" clip-rule="evenodd" d="M321.237 186.107C320.794 184.942 319.498 183.137 316.532 183.986C313.566 184.832 304.53 187.97 304.69 188.954C304.85 189.934 313.164 186.932 316.303 189.171C319.441 191.411 320.208 192.646 320.573 197.979C320.938 203.311 324.035 214.879 324.429 213.624C324.814 212.373 322.181 189.959 321.237 186.107Z" fill="#FF365A"/>
<path fill-rule="evenodd" clip-rule="evenodd" d="M338.681 188.171C338.681 188.171 338.476 190.013 334.8 190.751C330.826 191.559 294.083 194.369 292.008 193.315C292.008 193.315 325.07 183.371 338.681 188.171Z" fill="#D00B2E"/>
<path fill-rule="evenodd" clip-rule="evenodd" d="M324.62 146.498C324.62 146.498 323.336 145.161 319.969 146.794C316.318 148.566 285.384 168.596 284.371 170.696C284.371 170.696 316.699 158.567 324.62 146.498Z" fill="#FF2048"/>
<path fill-rule="evenodd" clip-rule="evenodd" d="M333.259 172.095L330.043 162.57L324.62 146.498C311.51 157.951 299.565 163.169 284.371 170.696L288.469 181.911L292.009 193.314C308.655 190.094 321.318 187.001 338.682 188.17L333.259 172.095Z" fill="#FF2048"/>
<path fill-rule="evenodd" clip-rule="evenodd" d="M317.376 152.31C306.941 159.977 296.735 164.567 284.371 170.696L288.469 181.911L292.009 193.314C306.354 190.541 317.745 187.859 331.737 187.92C328.054 186.312 312.691 187.358 304.647 188.417C296.607 189.475 294.183 187.859 295.098 185.008C296.013 182.157 323.718 177.78 322.364 170.171C321.01 162.557 292.161 178.264 291.488 176.279C288.772 168.239 311.834 157.229 317.376 152.31Z" fill="#FF2048"/>
<path fill-rule="evenodd" clip-rule="evenodd" d="M321.383 146.236C321.383 146.236 322.261 146.441 322.351 147.396C322.437 148.352 320.645 149.812 320.645 149.812L323.278 147.88L324.619 146.498C324.619 146.498 323.561 145.083 321.383 146.236Z" fill="#FF2048"/>
<path fill-rule="evenodd" clip-rule="evenodd" d="M336.26 190.329C336.26 190.329 336.839 189.631 336.33 188.819C335.821 187.999 333.512 187.929 333.512 187.929L336.777 187.867L338.676 188.155C338.676 188.155 338.693 189.927 336.26 190.329Z" fill="#FF2048"/>
<path fill-rule="evenodd" clip-rule="evenodd" d="M297.551 173.124C299.142 172.591 315.009 165.244 320.21 166.253C325.416 167.258 324.903 171.631 323.189 174.421C321.478 177.21 325.354 178.223 328.378 179.63C331.397 181.045 335.327 187.125 335.117 185.205C334.912 183.285 330.326 169.691 327.947 162.648C325.568 155.6 323.964 151.831 322.311 151.839C317.511 151.855 287.657 178.272 297.551 173.124Z" fill="#FF2048"/>
<path fill-rule="evenodd" clip-rule="evenodd" d="M324.508 156.233C323.827 155.191 322.165 153.71 319.458 155.174C316.747 156.643 308.6 161.66 308.969 162.582C309.338 163.514 316.804 158.78 320.357 160.294C323.905 161.799 324.918 162.841 326.427 167.968C327.937 173.096 333.458 183.72 333.565 182.412C333.68 181.103 326.263 159.785 324.508 156.233Z" fill="#FF365A"/>
<path fill-rule="evenodd" clip-rule="evenodd" d="M341.979 153.87C341.979 153.87 342.184 155.707 338.763 157.241C335.063 158.903 299.838 169.72 297.578 169.15C297.578 169.15 327.646 152.184 341.979 153.87Z" fill="#D00B2E"/>
<path fill-rule="evenodd" clip-rule="evenodd" d="M319.097 116.311C319.097 116.311 317.555 115.286 314.622 117.624C311.455 120.151 285.682 146.49 285.152 148.758C285.152 148.758 314.023 129.823 319.097 116.311Z" fill="#FF2048"/>
<path fill-rule="evenodd" clip-rule="evenodd" d="M333.154 139.385L327.92 130.795L319.097 116.311C308.829 130.369 298.32 138.076 285.152 148.758L291.617 158.8L297.577 169.149C313.108 162.344 324.778 156.548 341.978 153.869L333.154 139.385Z" fill="#FF2048"/>
<path fill-rule="evenodd" clip-rule="evenodd" d="M313.313 123.572C304.813 133.347 295.867 140.07 285.152 148.758L291.617 158.8L297.577 169.149C310.962 163.288 321.484 158.168 335.148 155.153C331.202 154.394 316.443 158.792 308.829 161.593C301.216 164.395 298.496 163.353 298.763 160.367C299.03 157.385 325.094 147.023 322.1 139.898C319.105 132.773 294.411 154.435 293.324 152.643C288.91 145.399 308.985 129.585 313.313 123.572Z" fill="#FF2048"/>
<path fill-rule="evenodd" clip-rule="evenodd" d="M315.883 116.762C315.883 116.762 316.785 116.766 317.085 117.685C317.384 118.596 315.953 120.413 315.953 120.413L318.098 117.948L319.099 116.311C319.099 116.311 317.757 115.162 315.883 116.762Z" fill="#FF2048"/>
<path fill-rule="evenodd" clip-rule="evenodd" d="M340.091 156.507C340.091 156.507 340.505 155.699 339.828 155.014C339.151 154.333 336.883 154.772 336.883 154.772L340.054 153.992L341.97 153.857C341.97 153.857 342.38 155.58 340.091 156.507Z" fill="#FF2048"/>
<path fill-rule="evenodd" clip-rule="evenodd" d="M298.548 148.233C299.98 147.364 313.845 136.707 319.145 136.547C324.44 136.387 324.9 140.768 323.842 143.865C322.787 146.962 326.795 147.093 330.048 147.811C333.305 148.52 338.478 153.587 337.85 151.757C337.231 149.932 329.765 137.679 325.897 131.329C322.029 124.979 319.637 121.656 318.021 122.021C313.349 123.096 290.024 155.432 298.548 148.233Z" fill="#FF2048"/>
<path fill-rule="evenodd" clip-rule="evenodd" d="M321.131 125.828C320.237 124.962 318.292 123.884 315.966 125.91C313.649 127.936 306.807 134.619 307.369 135.443C307.931 136.264 314.174 130.008 317.968 130.701C321.763 131.394 322.981 132.186 325.582 136.854C328.182 141.522 335.902 150.678 335.726 149.374C335.545 148.077 323.621 128.909 321.131 125.828Z" fill="#FF365A"/>
<path fill-rule="evenodd" clip-rule="evenodd" d="M338.029 121.266C338.029 121.266 338.611 123.022 335.588 125.237C332.319 127.637 300.146 145.6 297.816 145.513C297.816 145.513 323.659 122.62 338.029 121.266Z" fill="#D00B2E"/>
<path fill-rule="evenodd" clip-rule="evenodd" d="M307.779 89.336C307.779 89.336 306.056 88.6592 303.681 91.5593C301.109 94.6933 281.432 125.852 281.391 128.178C281.391 128.178 305.654 103.611 307.779 89.336Z" fill="#FF2048"/>
<path fill-rule="evenodd" clip-rule="evenodd" d="M326.357 108.952L319.445 101.654L307.779 89.3357C300.687 105.235 292.027 114.978 281.391 128.178L289.816 136.645L297.815 145.513C311.573 135.607 321.771 127.489 338.027 121.266L326.357 108.952Z" fill="#FF2048"/>
<path fill-rule="evenodd" clip-rule="evenodd" d="M303.644 97.6506C297.389 108.989 290.046 117.439 281.391 128.178L289.816 136.645L297.815 145.513C309.674 136.973 318.887 129.765 331.62 123.949H331.616C327.6 124.039 314.092 131.431 307.233 135.767C300.375 140.098 297.495 139.647 297.134 136.677C296.773 133.703 320.081 118.112 315.659 111.77C311.237 105.428 291.638 131.788 290.194 130.266C284.36 124.105 300.674 104.435 303.644 97.6506Z" fill="#FF2048"/>
<path fill-rule="evenodd" clip-rule="evenodd" d="M304.727 90.4559C304.727 90.4559 305.617 90.2673 306.097 91.1C306.581 91.9327 305.563 94.0083 305.563 94.0083L307.147 91.1492L307.778 89.3361C307.778 89.3361 306.224 88.4951 304.727 90.4559Z" fill="#FF2048"/>
<path fill-rule="evenodd" clip-rule="evenodd" d="M336.738 124.236C336.738 124.236 336.967 123.367 336.167 122.838C335.363 122.313 333.234 123.211 333.234 123.211L336.172 121.792L338.017 121.254C338.017 121.254 338.776 122.854 336.738 124.236Z" fill="#FF2048"/>
<path fill-rule="evenodd" clip-rule="evenodd" d="M294.383 124.86C295.593 123.711 306.918 110.384 312.066 109.116C317.21 107.845 318.581 112.033 318.195 115.282C317.81 118.531 321.756 117.821 325.09 117.837C328.421 117.854 334.542 121.722 333.545 120.069C332.556 118.412 322.691 107.992 317.576 102.598C312.46 97.1999 309.425 94.4515 307.924 95.153C303.575 97.1835 287.553 133.683 294.383 124.86Z" fill="#FF2048"/>
<path fill-rule="evenodd" clip-rule="evenodd" d="M311.766 98.2169C310.707 97.5606 308.574 96.9083 306.733 99.3778C304.887 101.843 299.599 109.817 300.321 110.503C301.047 111.188 305.834 103.759 309.694 103.644C313.546 103.525 314.904 104.046 318.428 108.066C321.947 112.086 331.419 119.416 330.968 118.182C330.52 116.947 314.846 100.707 311.766 98.2169Z" fill="#FF365A"/>
<path fill-rule="evenodd" clip-rule="evenodd" d="M326.685 88.8483C326.685 88.8483 327.637 90.4358 325.172 93.2621C322.506 96.3182 295.051 120.894 292.762 121.324C292.762 121.324 312.96 93.3196 326.685 88.8483Z" fill="#D00B2E"/>
<path fill-rule="evenodd" clip-rule="evenodd" d="M290.176 64.3217C290.176 64.3217 288.346 64.0428 286.664 67.3901C284.843 71.0122 272.471 105.728 272.943 108.004C272.943 108.004 291.226 78.7199 290.176 64.3217Z" fill="#FF2048"/>
<path fill-rule="evenodd" clip-rule="evenodd" d="M312.604 79.3932L304.257 73.7856L290.174 64.3223C286.737 81.3909 280.424 92.7904 272.941 108.005L283.016 114.42L292.763 121.324C304.015 108.641 312.186 98.484 326.686 88.8483L312.604 79.3932Z" fill="#FF2048"/>
<path fill-rule="evenodd" clip-rule="evenodd" d="M287.963 73.3426C284.341 85.7759 279.029 95.6331 272.941 108.005L283.016 114.421L292.763 121.324C302.46 110.388 309.872 101.335 321.021 92.8766H321.017C317.116 93.8405 305.557 104.018 299.818 109.744C294.071 115.479 291.167 115.672 290.162 112.849C289.153 110.031 308.486 89.7057 302.78 84.4879C297.078 79.2701 283.726 109.285 281.987 108.116C274.943 103.382 286.552 80.6197 287.963 73.3426Z" fill="#FF2048"/>
<path fill-rule="evenodd" clip-rule="evenodd" d="M287.445 66.0856C287.445 66.0856 288.266 65.7082 288.918 66.4137C289.574 67.1234 289.037 69.3672 289.037 69.3672L289.952 66.2332L290.173 64.3217C290.173 64.3217 288.471 63.8417 287.445 66.0856Z" fill="#FF2048"/>
<path fill-rule="evenodd" clip-rule="evenodd" d="M326.076 92.0352C326.076 92.0352 326.113 91.1286 325.211 90.7923C324.308 90.4559 322.43 91.8014 322.43 91.8014L324.985 89.7668L326.675 88.8438C326.675 88.8438 327.762 90.2344 326.076 92.0352Z" fill="#FF2048"/>
<path fill-rule="evenodd" clip-rule="evenodd" d="M284.884 101.921C285.819 100.531 293.949 85.0496 298.691 82.6869C303.437 80.32 305.685 84.102 306.022 87.359C306.358 90.612 310.054 89.0573 313.311 88.3394C316.568 87.6298 323.382 90.0623 322.052 88.6635C320.719 87.2647 308.811 79.2657 302.637 75.1186C296.464 70.9714 292.899 68.9532 291.591 69.9664C287.792 72.8994 280.158 112.029 284.884 101.921Z" fill="#FF2048"/>
<path fill-rule="evenodd" clip-rule="evenodd" d="M296.012 72.116C294.839 71.7058 292.616 71.5375 291.356 74.3515C290.101 77.1656 286.684 86.0998 287.537 86.6126C288.395 87.1253 291.443 78.8269 295.18 77.867C298.912 76.9071 300.352 77.1122 304.668 80.2667C308.983 83.4171 319.833 88.4995 319.123 87.3879C318.414 86.2844 299.565 73.8716 296.012 72.116Z" fill="#FF365A"/>
<path fill-rule="evenodd" clip-rule="evenodd" d="M309.761 61.311C309.761 61.311 311.02 62.6647 309.19 65.9381C307.209 69.4741 285.419 99.1893 283.27 100.083C283.27 100.083 297.253 68.5142 309.761 61.311Z" fill="#D00B2E"/>
<path fill-rule="evenodd" clip-rule="evenodd" d="M268.971 44.8458C268.971 44.8458 267.125 44.9442 266.173 48.5704C265.14 52.4919 260.197 89.0124 261.128 91.1455C261.128 91.1455 272.975 58.7148 268.971 44.8458Z" fill="#FF2048"/>
<path fill-rule="evenodd" clip-rule="evenodd" d="M294.031 54.961L284.707 51.1954L268.972 44.8454C269.132 62.2545 265.313 74.7124 261.129 91.1452L272.311 95.3416L283.272 100.083C291.66 85.349 297.563 73.7279 309.763 61.311L294.031 54.961Z" fill="#FF2048"/>
<path fill-rule="evenodd" clip-rule="evenodd" d="M268.673 54.1284C267.696 67.0375 264.529 77.7766 261.129 91.1452L272.311 95.3416L283.272 100.083C290.504 87.3836 295.89 76.9972 305.045 66.4181C301.427 68.1655 292.218 80.5086 287.78 87.3016C283.345 94.0904 280.544 94.878 278.977 92.3266C277.41 89.7751 292.128 65.9012 285.47 61.9715C278.813 58.0417 271.942 90.1689 270.002 89.3813C262.13 86.2063 268.792 61.5366 268.673 54.1284Z" fill="#FF2048"/>
<path fill-rule="evenodd" clip-rule="evenodd" d="M266.668 47.1343C266.668 47.1343 267.39 46.5929 268.178 47.1507C268.961 47.7045 268.904 50.0181 268.904 50.0181L269.15 46.761L268.969 44.8454C268.969 44.8454 267.205 44.7264 266.668 47.1343Z" fill="#FF2048"/>
<path fill-rule="evenodd" clip-rule="evenodd" d="M309.817 64.5516C309.817 64.5516 309.665 63.6574 308.718 63.5138C307.766 63.3702 306.203 65.0767 306.203 65.0767L308.287 62.558L309.747 61.3028C309.747 61.3028 311.097 62.4431 309.817 64.5516Z" fill="#FF2048"/>
<path fill-rule="evenodd" clip-rule="evenodd" d="M271.555 82.7278C272.183 81.1732 276.945 64.3466 281.093 61.0527C285.248 57.7587 288.23 60.9993 289.235 64.1128C290.236 67.2262 293.53 64.9413 296.57 63.5713C299.605 62.2012 306.78 63.1775 305.184 62.0822C303.596 60.9911 290.289 55.6174 283.398 52.8363C276.502 50.051 272.597 48.8122 271.523 50.0756C268.413 53.7264 269.016 93.59 271.555 82.7278Z" fill="#FF2048"/>
<path fill-rule="evenodd" clip-rule="evenodd" d="M276.293 51.2649C275.058 51.1049 272.847 51.4003 272.199 54.4112C271.547 57.4262 270.05 66.8732 270.989 67.1973C271.932 67.5213 273.204 58.7717 276.662 57.0611C280.12 55.3505 281.568 55.2603 286.445 57.4549C291.319 59.6454 302.977 62.3774 302.058 61.438C301.135 60.5027 280.132 52.2494 276.293 51.2649Z" fill="#FF365A"/>
<path fill-rule="evenodd" clip-rule="evenodd" d="M285.603 36.2434C285.603 36.2434 287.133 37.2854 286.075 40.8829C284.935 44.7716 270.282 78.5847 268.383 79.9302C268.383 79.9302 275.008 46.0473 285.603 36.2434Z" fill="#D00B2E"/>
<path fill-rule="evenodd" clip-rule="evenodd" d="M242.181 29.2496C242.181 29.2496 240.401 29.7583 240.274 33.5034C240.138 37.5563 243.428 74.2572 244.81 76.1318C244.81 76.1318 249.159 41.8798 242.181 29.2496Z" fill="#FF2048"/>
<path fill-rule="evenodd" clip-rule="evenodd" d="M268.855 33.5484L258.928 31.9445L242.18 29.2495C246.2 46.1868 245.24 59.182 244.809 76.1317L256.639 77.7397L268.383 79.9302C273.298 63.7025 276.465 51.0641 285.604 36.2434L268.855 33.5484Z" fill="#FF2048"/>
<path fill-rule="evenodd" clip-rule="evenodd" d="M243.949 38.3642C245.861 51.1708 245.159 62.3447 244.81 76.1317L256.641 77.7397L268.385 79.9302C272.618 65.9422 275.564 54.6206 282.143 42.2735C279.001 44.7757 272.762 58.858 269.944 66.4632C267.13 74.0725 264.57 75.4631 262.474 73.3218C260.378 71.1805 269.431 44.6362 262.068 42.2858C254.705 39.9312 255.139 72.7803 253.072 72.4439C244.692 71.0944 245.709 45.5592 243.949 38.3642Z" fill="#FF2048"/>
<path fill-rule="evenodd" clip-rule="evenodd" d="M240.438 31.9895C240.438 31.9895 241.032 31.3044 241.914 31.6736C242.804 32.0387 243.26 34.3071 243.26 34.3071L242.78 31.0747L242.181 29.2493C242.181 29.2493 240.433 29.5241 240.438 31.9895Z" fill="#FF2048"/>
<path fill-rule="evenodd" clip-rule="evenodd" d="M286.381 39.3893C286.381 39.3893 286.037 38.5525 285.081 38.6222C284.121 38.6961 282.977 40.7061 282.977 40.7061L284.449 37.7854L285.59 36.243C285.59 36.243 287.165 37.0512 286.381 39.3893Z" fill="#FF2048"/>
<path fill-rule="evenodd" clip-rule="evenodd" d="M253.107 65.61C253.374 63.9569 254.28 46.4903 257.599 42.3596C260.913 38.2247 264.544 40.7229 266.209 43.5369C267.883 46.3509 270.586 43.3892 273.24 41.3792C275.902 39.3692 283.11 38.7252 281.317 38.0114C279.52 37.3018 265.356 35.0169 258.013 33.8355C250.675 32.6541 246.593 32.3137 245.826 33.7822C243.607 38.0319 253.046 76.7675 253.107 65.61Z" fill="#FF2048"/>
<path fill-rule="evenodd" clip-rule="evenodd" d="M250.743 33.8846C249.505 33.9995 247.417 34.7789 247.45 37.8595C247.487 40.9402 248.122 50.4856 249.111 50.5923C250.104 50.699 249.402 41.8878 252.392 39.4552C255.387 37.0186 256.778 36.6043 262.016 37.6586C267.254 38.7169 279.232 38.7907 278.129 38.0851C277.021 37.3755 254.706 33.9872 250.743 33.8846Z" fill="#FF365A"/>
<path fill-rule="evenodd" clip-rule="evenodd" d="M257.291 17.5788C257.291 17.5788 259.006 18.2639 258.756 22.0049C258.485 26.0496 251.495 62.2296 249.932 63.9565C249.932 63.9565 249.071 29.4419 257.291 17.5788Z" fill="#D00B2E"/>
<path fill-rule="evenodd" clip-rule="evenodd" d="M213.379 20.1431C213.379 20.1431 211.755 21.0251 212.444 24.7087C213.186 28.6959 224.336 63.8176 226.095 65.3477C226.095 65.3477 222.933 30.9684 213.379 20.1431Z" fill="#FF2048"/>
<path fill-rule="evenodd" clip-rule="evenodd" d="M240.358 18.568L230.316 19.1546L213.379 20.1431C220.972 35.8129 222.846 48.7098 226.095 65.3477L237.995 64.3591L249.932 63.9571C251.216 47.0525 251.577 34.0244 257.291 17.5793L240.358 18.568Z" fill="#FF2048"/>
<path fill-rule="evenodd" clip-rule="evenodd" d="M217.082 28.6631C221.721 40.7518 223.452 51.8109 226.098 65.3477L237.998 64.359L249.935 63.9571C251.043 49.3825 251.465 37.6917 255.219 24.2124C252.696 27.3381 249.648 42.4377 248.545 50.4736C247.441 58.5095 245.247 60.4211 242.736 58.7844C240.226 57.1477 243.319 29.2743 235.619 28.5687C227.92 27.8632 235.455 59.8386 233.367 59.9617C224.892 60.458 220.364 35.3084 217.082 28.6631Z" fill="#FF2048"/>
<path fill-rule="evenodd" clip-rule="evenodd" d="M212.276 23.1986C212.276 23.1986 212.703 22.3987 213.65 22.5669C214.594 22.7351 215.529 24.8477 215.529 24.8477L214.364 21.7957L213.379 20.1426C213.379 20.1426 211.739 20.7907 212.276 23.1986Z" fill="#FF2048"/>
<path fill-rule="evenodd" clip-rule="evenodd" d="M258.731 20.4833C258.731 20.4833 258.21 19.7408 257.291 20.0157C256.372 20.2946 255.691 22.5015 255.691 22.5015L256.495 19.3347L257.279 17.579C257.279 17.579 258.985 18.0303 258.731 20.4833Z" fill="#FF2048"/>
<path fill-rule="evenodd" clip-rule="evenodd" d="M231.923 53.2792C231.829 51.6055 228.929 34.3606 231.275 29.6104C233.617 24.8561 237.703 26.5051 239.939 28.8925C242.178 31.2799 244.176 27.8055 246.338 25.2663C248.496 22.7271 255.399 20.5408 253.492 20.2331C251.584 19.9255 237.264 20.7623 229.839 21.1971C222.419 21.6278 218.354 22.1816 217.927 23.7813C216.676 28.4126 234.274 64.1865 231.923 53.2792Z" fill="#FF2048"/>
<path fill-rule="evenodd" clip-rule="evenodd" d="M222.744 22.8173C221.563 23.2029 219.692 24.413 220.39 27.4116C221.087 30.4143 223.778 39.5946 224.767 39.4839C225.759 39.3731 223.167 30.9229 225.558 27.8997C227.954 24.8724 229.226 24.1669 234.566 24.0684C239.911 23.9659 251.619 21.4431 250.384 20.9919C249.153 20.5407 226.637 22.0666 222.744 22.8173Z" fill="#FF365A"/>
<path fill-rule="evenodd" clip-rule="evenodd" d="M225.738 5.51927C225.738 5.51927 227.564 5.81461 228.122 9.51876C228.729 13.5306 229.701 50.3669 228.548 52.3892C228.548 52.3892 220.262 18.8714 225.738 5.51927Z" fill="#D00B2E"/>
<path fill-rule="evenodd" clip-rule="evenodd" d="M197.824 47.3069C201.573 53.4805 204.786 58.4604 205.569 58.8911C205.569 58.8911 203.719 53.0908 200.712 45.7317L197.824 47.3069Z" fill="#FF2048"/>
<path fill-rule="evenodd" clip-rule="evenodd" d="M209.413 10.1342L199.736 12.8703L194.137 14.4537C197.558 26.2921 202.168 43.6069 201.746 45.1656V45.1698L200.035 46.1009C201.836 50.1578 203.617 54.383 205.569 58.8911L216.977 55.3552L228.549 52.3893C226.161 35.6038 223.704 22.8013 225.735 5.51944L209.413 10.1342Z" fill="#FF2048"/>
<path fill-rule="evenodd" clip-rule="evenodd" d="M200.035 46.1009C201.836 50.1578 203.616 54.383 205.569 58.8911L216.977 55.3552L228.549 52.3893C226.489 37.9173 224.377 26.4111 225.14 12.4396V12.4437C223.351 16.0371 223.626 31.4361 224.286 39.5212C224.939 47.6105 223.208 49.9487 220.406 48.8903C217.604 47.832 214.61 19.9463 206.943 20.9185C199.276 21.8907 213.523 51.491 211.504 52.0612C208.272 52.9719 204.773 49.8256 201.438 45.3338L200.035 46.1009Z" fill="#FF2048"/>
<path fill-rule="evenodd" clip-rule="evenodd" d="M227.769 8.03806C227.769 8.03806 227.105 7.42686 226.264 7.8945C225.423 8.36213 225.234 10.6675 225.234 10.6675L225.337 7.40227L225.722 5.51945C225.722 5.51945 227.49 5.58914 227.769 8.03806Z" fill="#FF2048"/>
<path fill-rule="evenodd" clip-rule="evenodd" d="M208.658 45.8422C208.206 44.2301 201.655 28.0148 202.923 22.8708C204.186 17.7268 208.53 18.457 211.23 20.307C213.929 22.1571 215.135 18.3298 216.693 15.3846C218.256 12.4393 224.524 8.81721 222.596 8.92797C220.668 9.03462 206.865 12.9439 199.707 14.9662C197.808 15.5035 196.138 15.9958 194.715 16.4634C196.864 23.9948 199.325 33.1136 200.7 39.0452C206.155 45.9079 210.93 50.7975 208.658 45.8422Z" fill="#FF2048"/>
<path fill-rule="evenodd" clip-rule="evenodd" d="M196.663 23.4326C196.728 23.0716 196.827 22.7353 196.974 22.4317C198.66 18.9614 199.747 18.0015 204.945 16.7504C210.142 15.4993 221.033 10.5112 219.724 10.3348C218.572 10.1789 201.355 15.167 194.973 17.3862C195.531 19.3388 196.101 21.3775 196.663 23.4326Z" fill="#FF365A"/>
<path fill-rule="evenodd" clip-rule="evenodd" d="M185.569 43.3193C248.609 43.3193 299.713 94.4266 299.713 157.463C299.713 220.503 248.609 271.61 185.569 271.61C122.529 271.61 71.4258 220.503 71.4258 157.463C71.4258 94.4266 122.529 43.3193 185.569 43.3193Z" fill="url(#paint2_linear_821_18917)"/>
<path fill-rule="evenodd" clip-rule="evenodd" d="M186.208 266.466C246.935 266.466 296.467 216.934 296.467 156.203C296.467 95.4768 246.935 45.9446 186.208 45.9446C125.481 45.9446 75.9492 95.4768 75.9492 156.203C75.9492 216.934 125.481 266.466 186.208 266.466Z" fill="#FF2048"/>
<path fill-rule="evenodd" clip-rule="evenodd" d="M186.208 269.001C246.935 269.001 296.467 219.469 296.467 158.743C296.467 98.0119 246.935 48.4839 186.208 48.4839C125.481 48.4839 75.9492 98.0119 75.9492 158.743C75.9492 219.469 125.481 269.001 186.208 269.001Z" fill="url(#paint3_linear_821_18917)"/>
<path fill-rule="evenodd" clip-rule="evenodd" d="M185.411 52.1963C243.549 52.1963 290.678 99.3288 290.678 157.463C290.678 215.601 243.549 262.73 185.411 262.73C127.273 262.73 80.1445 215.601 80.1445 157.463C80.1445 99.3288 127.273 52.1963 185.411 52.1963Z" fill="#BF0F2F"/>
<path fill-rule="evenodd" clip-rule="evenodd" d="M186.006 257.987C242.007 257.987 287.687 212.307 287.687 156.306C287.687 100.301 242.007 54.6207 186.006 54.6207C129.997 54.6207 84.3203 100.301 84.3203 156.306C84.3203 212.307 129.997 257.987 186.006 257.987Z" fill="#FF2048"/>
<path fill-rule="evenodd" clip-rule="evenodd" d="M184.752 258.836C240.753 258.836 286.433 213.155 286.433 157.154C286.433 101.148 240.753 55.4681 184.752 55.4681C128.743 55.4681 83.0664 101.148 83.0664 157.154C83.0664 213.155 128.743 258.836 184.752 258.836Z" fill="url(#paint4_linear_821_18917)"/>
<g filter="url(#filter0_di_821_18917)">
<path fill-rule="evenodd" clip-rule="evenodd" d="M160.69 126.311C158.375 130.054 156.569 134.115 155.23 138.323C153.388 144.288 158.035 150.282 164.48 150.147C168.486 150.06 172.142 147.588 173.239 143.909C180.014 121.187 208.969 109.043 231.312 123.019C244.839 131.499 251.454 147.722 247.626 162.784C244.029 176.871 232.945 186.526 219.945 189.807C215.394 197.416 209.008 203.884 201.353 208.636C239.924 214.8 273.769 180.543 266.723 143.865C259.976 109.051 219.653 88.9574 186.245 103.8C183.737 104.912 181.363 106.179 179.116 107.608C171.461 112.356 165.158 118.829 160.69 126.311ZM211.57 183.52C213.884 179.776 215.69 175.715 217.029 171.507C218.877 165.543 214.225 159.549 207.78 159.683C203.773 159.771 200.117 162.243 199.021 165.922C192.246 188.644 163.29 200.788 140.947 186.812C127.42 178.332 120.805 162.109 124.634 147.046C128.231 132.96 139.314 123.305 152.315 120.023C156.866 112.415 163.252 105.947 170.906 101.195C132.333 95.0309 98.4908 129.288 105.537 165.966C112.283 200.78 152.609 220.871 186.015 206.031C188.523 204.919 190.896 203.652 193.144 202.222C200.798 197.475 207.101 191.002 211.57 183.52Z" fill="white"/>
</g>
<path fill-rule="evenodd" clip-rule="evenodd" d="M278.52 155.33C278.52 208.119 235.727 250.911 182.938 250.911C146.2 250.911 114.303 230.188 98.3047 199.792C113.63 232.12 146.561 254.476 184.718 254.476C237.508 254.476 280.304 211.688 280.304 158.898C280.304 142.843 276.346 127.715 269.356 114.432C275.234 126.829 278.52 140.694 278.52 155.33Z" fill="#BB0A2A"/>
<path fill-rule="evenodd" clip-rule="evenodd" d="M181.527 514.788L234.899 450.157L308.83 490.385L271.621 300.641L302.837 482.247L232.651 445.434L181.527 514.788Z" fill="#FF2048"/>
<path fill-rule="evenodd" clip-rule="evenodd" d="M74.7597 276.493L0 432.463L81.6593 412.048L117.13 487.99L152.859 413.447L117.548 476.008L85.421 404.574L9.30751 425.474L74.7597 276.493Z" fill="#FF2048"/>
<defs>
<filter id="filter0_di_821_18917" x="101.525" y="98.8564" width="169.208" height="121.346" filterUnits="userSpaceOnUse" color-interpolation-filters="sRGB">
<feFlood flood-opacity="0" result="BackgroundImageFix"/>
<feColorMatrix in="SourceAlpha" type="matrix" values="0 0 0 0 0 0 0 0 0 0 0 0 0 0 0 0 0 0 127 0" result="hardAlpha"/>
<feOffset dy="6.15306"/>
<feGaussianBlur stdDeviation="1.53827"/>
<feComposite in2="hardAlpha" operator="out"/>
<feColorMatrix type="matrix" values="0 0 0 0 0 0 0 0 0 0 0 0 0 0 0 0 0 0 0.12 0"/>
<feBlend mode="normal" in2="BackgroundImageFix" result="effect1_dropShadow_821_18917"/>
<feBlend mode="normal" in="SourceGraphic" in2="effect1_dropShadow_821_18917" result="shape"/>
<feColorMatrix in="SourceAlpha" type="matrix" values="0 0 0 0 0 0 0 0 0 0 0 0 0 0 0 0 0 0 127 0" result="hardAlpha"/>
<feOffset dy="3.07653"/>
<feGaussianBlur stdDeviation="1.53827"/>
<feComposite in2="hardAlpha" operator="arithmetic" k2="-1" k3="1"/>
<feColorMatrix type="matrix" values="0 0 0 0 0 0 0 0 0 0 0 0 0 0 0 0 0 0 0.12 0"/>
<feBlend mode="normal" in2="shape" result="effect2_innerShadow_821_18917"/>
</filter>
<linearGradient id="paint0_linear_821_18917" x1="96.4799" y1="386.521" x2="138.984" y2="283.987" gradientUnits="userSpaceOnUse">
<stop stop-color="#FF2048"/>
<stop offset="1" stop-color="#D41638"/>
</linearGradient>
<linearGradient id="paint1_linear_821_18917" x1="228.056" y1="429.658" x2="209.749" y2="299.422" gradientUnits="userSpaceOnUse">
<stop stop-color="#FF2048"/>
<stop offset="1" stop-color="#DD163A"/>
</linearGradient>
<linearGradient id="paint2_linear_821_18917" x1="76.783" y1="231.197" x2="221.118" y2="133.372" gradientUnits="userSpaceOnUse">
<stop stop-color="#E9153B"/>
<stop offset="0.41" stop-color="#C61E25"/>
<stop offset="1" stop-color="#C20D2D"/>
</linearGradient>
<linearGradient id="paint3_linear_821_18917" x1="176.56" y1="218.284" x2="200.383" y2="71.2761" gradientUnits="userSpaceOnUse">
<stop stop-color="#FF2048"/>
<stop offset="1" stop-color="#B30726"/>
</linearGradient>
<linearGradient id="paint4_linear_821_18917" x1="87.9068" y1="222.786" x2="216.395" y2="135.702" gradientUnits="userSpaceOnUse">
<stop stop-color="#FF2048"/>
<stop offset="0.41" stop-color="#D10A2E"/>
<stop offset="1" stop-color="#CD0B2E"/>
</linearGradient>
</defs>
</svg>
