<svg width="16" height="17" viewBox="0 0 16 17" fill="none" xmlns="http://www.w3.org/2000/svg">
<path d="M15.9615 6.54642C15.9135 6.38368 15.8183 6.23884 15.6879 6.13025C15.5575 6.02166 15.3978 5.9542 15.229 5.93643L10.6106 5.49869L8.78436 1.0392C8.72404 0.880643 8.61693 0.744166 8.47724 0.647867C8.33754 0.551569 8.17186 0.5 8.00217 0.5C7.83249 0.5 7.66681 0.551569 7.52711 0.647867C7.38742 0.744166 7.28031 0.880643 7.21999 1.0392L5.39375 5.49869L0.77413 5.93643C0.60565 5.95467 0.446331 6.02232 0.316217 6.13086C0.186103 6.2394 0.091007 6.38398 0.0428949 6.54642C-0.00942162 6.71083 -0.013979 6.8867 0.0297527 7.0536C0.0734845 7.22049 0.163708 7.37154 0.289934 7.4892L3.78121 10.683L2.75353 15.4129C2.71573 15.5813 2.7268 15.757 2.78544 15.9193C2.84408 16.0816 2.94785 16.2238 3.08456 16.3292C3.2166 16.4307 3.37657 16.4893 3.54295 16.4973C3.70933 16.5052 3.87415 16.4621 4.01528 16.3736L7.9994 13.8898L11.9823 16.3736C12.1238 16.463 12.2893 16.5068 12.4565 16.4992C12.6237 16.4915 12.7845 16.4328 12.9173 16.331C13.0539 16.2255 13.1576 16.0833 13.2162 15.9211C13.2749 15.7588 13.286 15.5832 13.2484 15.4148L12.2188 10.6843L15.7101 7.49105C15.8363 7.37326 15.9265 7.22209 15.9702 7.05511C16.014 6.88812 16.0094 6.71216 15.9571 6.54766L15.9615 6.54642Z" fill="#FFC107"/>
</svg>
